<svg width="76" height="76" viewBox="0 0 76 76" fill="none" xmlns="http://www.w3.org/2000/svg">
<path d="M9.875 9.74788H66.125C66.9538 9.74788 67.7487 10.0771 68.3347 10.6632C68.9208 11.2492 69.25 12.0441 69.25 12.8729V62.8729C69.25 63.7017 68.9208 64.4965 68.3347 65.0826C67.7487 65.6686 66.9538 65.9979 66.125 65.9979H9.875C9.0462 65.9979 8.25134 65.6686 7.66529 65.0826C7.07924 64.4965 6.75 63.7017 6.75 62.8729V12.8729C6.75 12.0441 7.07924 11.2492 7.66529 10.6632C8.25134 10.0771 9.0462 9.74788 9.875 9.74788V9.74788ZM38.1875 36.8823L18.15 19.8666L14.1031 24.6291L38.2281 45.1135L61.9187 24.6135L57.8313 19.8854L38.1906 36.8823H38.1875Z" fill="url(#paint0_linear)"/>
<defs>
<linearGradient id="paint0_linear" x1="38" y1="9.74788" x2="38" y2="65.9979" gradientUnits="userSpaceOnUse">
<stop stop-color="#0D4A81"/>
<stop offset="1" stop-color="#0D4A81" stop-opacity="0.8"/>
</linearGradient>
</defs>
</svg>
