<svg width="33" height="33" viewBox="0 0 33 33" fill="none" xmlns="http://www.w3.org/2000/svg">
<path d="M21.5 16.3051C21.5 17.294 21.2068 18.2607 20.6574 19.0829C20.108 19.9052 19.3271 20.546 18.4135 20.9245C17.4998 21.3029 16.4945 21.4019 15.5246 21.209C14.5547 21.0161 13.6638 20.5399 12.9645 19.8406C12.2652 19.1413 11.789 18.2504 11.5961 17.2805C11.4032 16.3106 11.5022 15.3053 11.8806 14.3916C12.2591 13.478 12.8999 12.6971 13.7222 12.1477C14.5444 11.5983 15.5111 11.3051 16.5 11.3051C17.8256 11.3066 19.0965 11.8339 20.0339 12.7712C20.9712 13.7086 21.4985 14.9794 21.5 16.3051ZM10.8432 10.6482C10.9369 10.5555 11.0115 10.4452 11.0625 10.3237C11.1135 10.2021 11.1399 10.0717 11.1403 9.93982C11.1407 9.80799 11.115 9.67738 11.0648 9.55551C11.0145 9.43363 10.9406 9.3229 10.8474 9.22969C10.7542 9.13647 10.6434 9.06261 10.5216 9.01235C10.3997 8.96209 10.2691 8.93643 10.1372 8.93683C10.0054 8.93724 9.87496 8.96371 9.7534 9.01472C9.63183 9.06573 9.52155 9.14027 9.42891 9.23406C8.49945 10.1621 7.76208 11.2644 7.25898 12.4777C6.75589 13.691 6.49693 14.9916 6.49693 16.3051C6.49693 17.6185 6.75589 18.9191 7.25898 20.1324C7.76208 21.3458 8.49945 22.448 9.42891 23.3761C9.52155 23.4698 9.63183 23.5444 9.7534 23.5954C9.87496 23.6464 10.0054 23.6729 10.1372 23.6733C10.2691 23.6737 10.3997 23.648 10.5216 23.5978C10.6434 23.5475 10.7542 23.4736 10.8474 23.3804C10.9406 23.2872 11.0145 23.1765 11.0648 23.0546C11.115 22.9327 11.1407 22.8021 11.1403 22.6703C11.1399 22.5385 11.1135 22.408 11.0625 22.2864C11.0115 22.1649 10.9369 22.0546 10.8432 21.9619C10.0994 21.2196 9.50932 20.3378 9.10671 19.3671C8.70411 18.3965 8.49688 17.3559 8.49688 16.3051C8.49688 15.2542 8.70411 14.2137 9.10671 13.243C9.50932 12.2723 10.0994 11.3906 10.8432 10.6482ZM26.5 16.3051C26.5016 14.9916 26.2436 13.6909 25.741 12.4774C25.2384 11.2639 24.5011 10.1617 23.5713 9.23406C23.4784 9.14119 23.3682 9.06752 23.2469 9.01725C23.1255 8.96698 22.9955 8.94111 22.8642 8.94109C22.7329 8.94108 22.6028 8.96694 22.4815 9.01718C22.3601 9.06743 22.2499 9.14108 22.157 9.23393C22.0642 9.32679 21.9905 9.43702 21.9402 9.55834C21.89 9.67967 21.8641 9.80971 21.8641 9.94103C21.8641 10.0724 21.8899 10.2024 21.9402 10.3237C21.9904 10.4451 22.0641 10.5553 22.1569 10.6482C22.9007 11.3906 23.4907 12.2723 23.8934 13.243C24.296 14.2137 24.5032 15.2542 24.5032 16.3051C24.5032 17.3559 24.296 18.3965 23.8934 19.3671C23.4907 20.3378 22.9007 21.2196 22.1569 21.9619C21.9713 22.1499 21.8675 22.4036 21.8683 22.6678C21.8691 22.9319 21.9744 23.1851 22.1612 23.3718C22.3481 23.5586 22.6012 23.6639 22.8653 23.6647C23.1295 23.6655 23.3832 23.5617 23.5712 23.3761C24.501 22.4484 25.2383 21.3462 25.741 20.1327C26.2436 18.9193 26.5016 17.6185 26.5 16.3051ZM4.52128 21.3649C3.51327 18.982 3.23995 16.3523 3.73637 13.813C4.2328 11.2737 5.47633 8.94056 7.30753 7.11268C7.49507 6.92514 7.60043 6.67078 7.60043 6.40556C7.60043 6.14033 7.49507 5.88597 7.30753 5.69843C7.11999 5.51089 6.86563 5.40553 6.60041 5.40553C6.33518 5.40553 6.08082 5.51089 5.89328 5.69843C4.499 7.09053 3.39286 8.74386 2.63816 10.5639C1.88345 12.3839 1.49499 14.3348 1.49499 16.3051C1.49499 18.2753 1.88345 20.2263 2.63816 22.0463C3.39286 23.8663 4.499 25.5196 5.89328 26.9117C6.08082 27.0992 6.33519 27.2046 6.60043 27.2046C6.86566 27.2046 7.12004 27.0993 7.30759 26.9117C7.49515 26.7242 7.60053 26.4698 7.60054 26.2046C7.60055 25.9394 7.4952 25.685 7.30766 25.4974C6.12017 24.3132 5.17387 22.9098 4.52128 21.3649ZM30.3208 10.4662C29.5681 8.68391 28.4766 7.06471 27.1068 5.69843C27.0139 5.60556 26.9037 5.53189 26.7823 5.48163C26.661 5.43137 26.531 5.40549 26.3996 5.40549C26.2683 5.40548 26.1383 5.43134 26.0169 5.4816C25.8956 5.53185 25.7853 5.60551 25.6925 5.69837C25.5996 5.79123 25.5259 5.90147 25.4757 6.02281C25.4254 6.14414 25.3995 6.27418 25.3995 6.40551C25.3995 6.53684 25.4254 6.66689 25.4756 6.78823C25.5259 6.90956 25.5995 7.01981 25.6924 7.11268C26.901 8.31905 27.8598 9.7519 28.514 11.3292C29.1682 12.9066 29.5049 14.5974 29.5049 16.3051C29.5049 18.0127 29.1682 19.7035 28.514 21.2809C27.8598 22.8582 26.901 24.2911 25.6924 25.4974C25.5049 25.685 25.3995 25.9394 25.3995 26.2046C25.3995 26.4698 25.5049 26.7242 25.6925 26.9117C25.88 27.0993 26.1344 27.2046 26.3996 27.2046C26.6649 27.2046 26.9192 27.0992 27.1068 26.9117C29.2163 24.8003 30.6488 22.1081 31.2213 19.1789C31.7937 16.2497 31.4802 13.2163 30.3208 10.4661V10.4662Z" fill="url(#paint0_linear)"/>
<defs>
<linearGradient id="paint0_linear" x1="16.4975" y1="5.40549" x2="16.4975" y2="27.2046" gradientUnits="userSpaceOnUse">
<stop stop-color="#0D4A81"/>
<stop offset="1" stop-color="#105FA7"/>
</linearGradient>
</defs>
</svg>
