<svg width="301" height="280" viewBox="0 0 301 280" fill="none" xmlns="http://www.w3.org/2000/svg">
<path d="M150.5 279.118C233.343 279.118 300.5 267.285 300.5 252.689C300.5 238.093 233.343 226.26 150.5 226.26C67.6573 226.26 0.5 238.093 0.5 252.689C0.5 267.285 67.6573 279.118 150.5 279.118Z" fill="#E3EFF5"/>
<path d="M195.008 144.604H185.607C183.941 144.604 182.59 145.953 182.59 147.617V163.948C182.59 165.612 183.941 166.961 185.607 166.961H195.008C196.674 166.961 198.024 165.612 198.024 163.948V147.617C198.024 145.953 196.674 144.604 195.008 144.604Z" fill="#FED3A4"/>
<path d="M236.355 58.3959C236.355 58.3959 213.893 60.6036 206.647 64.6751C199.401 68.7466 184.366 102.495 181.649 110.394C178.931 118.293 181.649 155.778 181.649 155.778H199.012C199.012 155.778 197.436 127.024 199.392 116.782C201.348 106.539 211.538 93.7187 211.538 93.7187L236.355 78.8259L236.98 67.0637L236.355 58.3959Z" fill="#4CC1BB"/>
<path d="M236.971 68.8371V138.171H264.642L263.709 65.6251L237.596 58.3959L236.971 68.8371Z" fill="#4CC1BB"/>
<path d="M236.971 68.8371V138.171H209.31L210.243 63.4536L236.355 58.3959L236.971 68.8371Z" fill="#4CC1BB"/>
<path d="M216.809 256.146H226.872C231.364 256.146 235.006 252.508 235.006 248.021V241.723C235.006 237.236 231.364 233.598 226.872 233.598H216.809C212.317 233.598 208.676 237.236 208.676 241.723V248.021C208.676 252.508 212.317 256.146 216.809 256.146Z" fill="#224E48"/>
<path d="M247.079 256.146H257.142C261.634 256.146 265.276 252.508 265.276 248.021V241.723C265.276 237.236 261.634 233.598 257.142 233.598H247.079C242.587 233.598 238.946 237.236 238.946 241.723V248.021C238.946 252.508 242.587 256.146 247.079 256.146Z" fill="#224E48"/>
<path d="M209.31 162.156H264.642V138.162H209.31V162.156Z" fill="#488279"/>
<path d="M209.31 238.475H234.372V158.7H209.31V238.475Z" fill="#488279"/>
<path d="M239.58 238.475H264.642V158.7H239.58V238.475Z" fill="#488279"/>
<path d="M262.667 225.6L220.233 189.201H234.508L266.236 216.561L262.667 225.6Z" fill="#758B96"/>
<path d="M38.0068 225.6L80.4499 189.201H66.1663L34.4382 216.561L38.0068 225.6Z" fill="#758B96"/>
<path d="M23.1073 191.589L281.796 191.589V178.144L23.1073 178.144V191.589Z" fill="#5E707A"/>
<path d="M28.2429 171.422H92.2426C93.5983 171.422 94.6972 170.324 94.6972 168.97V161.351C94.6972 159.997 93.5983 158.899 92.2426 158.899H28.2429C26.8873 158.899 25.7883 159.997 25.7883 161.351V168.97C25.7883 170.324 26.8873 171.422 28.2429 171.422Z" fill="#93ADBA"/>
<path d="M184.057 112.361L184.06 109.376C184.064 105.943 181.281 103.157 177.844 103.153L167.908 103.143C164.472 103.139 161.683 105.919 161.679 109.352L161.676 112.338C161.672 115.771 164.455 118.557 167.892 118.56L177.828 118.571C181.264 118.574 184.053 115.794 184.057 112.361Z" fill="#FDC88C"/>
<path d="M81.1111 127.603C81.1111 127.603 80.6582 120.365 88.8099 110.864C96.9616 101.364 100.92 97.8264 106.327 98.2788C111.734 98.7312 172.111 101.726 172.111 101.726L172.881 116.148L96.6627 117.053L81.1111 127.603Z" fill="#38C6F4"/>
<path d="M172.7 112.792L105.702 117.08L172.881 116.148L172.7 112.792Z" fill="#00BBF2"/>
<path d="M89.7518 143.789H159.159V116.148L84.3627 117.08L79.2905 143.165L89.7518 143.789Z" fill="#38C6F4"/>
<path d="M89.7518 143.789H159.159V171.422L84.3627 170.49L79.2905 144.414L89.7518 143.789Z" fill="#38C6F4"/>
<path d="M265.973 163.93V153.878C265.973 149.39 262.332 145.753 257.839 145.753H251.536C247.043 145.753 243.402 149.39 243.402 153.878V163.93C243.402 168.417 247.043 172.055 251.536 172.055H257.839C262.332 172.055 265.973 168.417 265.973 163.93Z" fill="#FDC88C"/>
<path d="M257.379 86.4775L251.6 78.2483C249.02 74.5748 243.948 73.6859 240.27 76.2629L235.11 79.8794C231.432 82.4564 230.542 87.5235 233.122 91.197L238.901 99.4262C241.481 103.1 246.553 103.989 250.231 101.412L255.391 97.7951C259.069 95.2181 259.959 90.1511 257.379 86.4775Z" fill="#FDC88C"/>
<path d="M184.954 146.386C187.916 143.066 247.206 102.766 247.206 102.766L232.814 82.264H232.75C231.048 83.4222 186.739 113.696 183.17 114.891C179.601 116.085 160.409 116.103 159.213 116.103H159.159V171.376H248.275V146.386C248.275 146.386 185 148.178 184.954 146.386Z" fill="#18728E"/>
<path d="M152.321 106.236L149.333 106.32C145.898 106.417 143.192 109.278 143.289 112.709L143.57 122.631C143.667 126.062 146.53 128.766 149.966 128.669L152.953 128.584C156.389 128.487 159.095 125.627 158.997 122.195L158.717 112.274C158.619 108.842 155.756 106.139 152.321 106.236Z" fill="#FDC88C"/>
<path d="M82.4606 166.88L85.0782 175.321C85.0782 175.321 150.437 173.132 157.13 165.106C163.823 157.081 159.847 118.428 159.847 118.428H141.732C141.732 118.428 145.138 146.603 140.917 153.643C136.696 160.682 82.4606 166.88 82.4606 166.88Z" fill="#38C6F4"/>
<path d="M141.696 118.428C141.696 118.428 142.765 147.246 137.783 152.901C132.802 158.555 104.778 163.758 104.778 163.758C104.778 163.758 134.577 162.609 140.881 153.624C147.185 144.64 141.696 118.428 141.696 118.428Z" fill="#00BBF2"/>
<path d="M63.2498 172.924C79.1547 172.924 99.2259 161.523 99.2259 147.472C99.2259 133.421 79.1184 122.038 63.2136 122.038C47.3088 122.038 34.4019 133.43 34.4019 147.472C34.4019 161.514 47.3359 172.924 63.2498 172.924Z" fill="#FDC88C"/>
<path d="M59.6903 171.756C64.7534 165.287 49.7271 159.904 50.3068 147.472C50.8865 135.04 59.02 130.779 59.0834 123.377C59.1468 115.976 46.403 112.792 46.403 112.792C46.403 112.792 50.4698 120.301 44.6821 124.644C38.8944 128.987 28.4874 143.97 35.1447 157.307C41.8019 170.643 53.3682 179.845 59.6903 171.756Z" fill="#B5B6B6"/>
<path d="M12.6279 184.876L292.285 184.876C293.525 184.876 294.531 183.871 294.531 182.632V173.674C294.531 172.435 293.525 171.431 292.285 171.431L12.6279 171.431C11.3873 171.431 10.3817 172.435 10.3817 173.674V182.632C10.3817 183.871 11.3873 184.876 12.6279 184.876Z" fill="#758B96"/>
<path d="M258.048 259.593H271.933V191.589H258.048V259.593Z" fill="#758B96"/>
<path d="M256.399 261.656H273.572V241.262H256.399V261.656Z" fill="#5E707A"/>
<path d="M29.2573 259.593H43.1424L43.1424 191.589H29.2573L29.2573 259.593Z" fill="#758B96"/>
<path d="M27.6089 261.656H44.7817V241.262H27.6089L27.6089 261.656Z" fill="#5E707A"/>
<path d="M232.183 102.407L230.841 105.075C229.298 108.142 230.536 111.878 233.607 113.42L242.485 117.876C245.556 119.418 249.296 118.181 250.839 115.113L252.181 112.446C253.724 109.378 252.486 105.642 249.415 104.1L240.537 99.6439C237.466 98.1025 233.726 99.3395 232.183 102.407Z" fill="#FED3A4"/>
<path d="M264.506 127.594V131.882L241.491 118.528L264.506 127.594Z" fill="#6AB4A6"/>
<path d="M237.596 58.3959C237.596 58.3959 258.972 60.9021 265.149 65.5256C271.326 70.149 292.113 111.878 294.522 117.46C296.931 123.043 292.656 128.191 285.51 129.973C273.509 132.959 241.491 118.528 241.491 118.528L248.981 103.834L273.781 111.642L256.825 80.7079L237.596 58.3959Z" fill="#4CC1BB"/>
<path d="M211.538 31.0894C211.538 46.9865 222.914 67.0637 236.98 67.0637C251.046 67.0637 262.441 46.9865 262.441 31.0894C262.441 15.1923 251.037 2.31726 236.98 2.31726C222.923 2.31726 211.538 15.2014 211.538 31.0894Z" fill="#FED3A4"/>
<path d="M220.097 4.63346C220.097 4.63346 230.803 -3.74485 248.175 2.32626C265.547 8.39736 270.167 37.6129 262.106 35.939C244.308 32.3199 227.053 22.5572 227.053 22.5572C227.053 22.5572 218.277 37.0338 211.52 37.8752C204.763 38.7167 206.194 9.09404 220.097 4.63346Z" fill="#6E3C12"/>
<path d="M229.526 45.3487C229.526 45.8855 229.367 46.4103 229.068 46.8567C228.769 47.3031 228.345 47.651 227.849 47.8564C227.352 48.0619 226.806 48.1156 226.279 48.0109C225.752 47.9062 225.267 47.6476 224.887 47.268C224.507 46.8884 224.249 46.4048 224.144 45.8782C224.039 45.3517 224.093 44.8059 224.298 44.31C224.504 43.814 224.852 43.39 225.299 43.0918C225.746 42.7935 226.271 42.6343 226.809 42.6343C227.529 42.6343 228.221 42.9203 228.73 43.4294C229.24 43.9384 229.526 44.6288 229.526 45.3487Z" fill="#6E3C12"/>
<path d="M226.401 44.2901C226.403 44.4497 226.357 44.6063 226.27 44.7399C226.182 44.8735 226.057 44.9781 225.91 45.0405C225.763 45.1028 225.6 45.1201 225.443 45.09C225.287 45.06 225.142 44.984 225.028 44.8718C224.915 44.7595 224.837 44.616 224.805 44.4596C224.773 44.3032 224.789 44.1408 224.85 43.9931C224.91 43.8454 225.014 43.7191 225.146 43.6303C225.279 43.5414 225.435 43.4939 225.595 43.4939C225.701 43.4927 225.805 43.5124 225.903 43.5519C226.001 43.5914 226.09 43.6498 226.165 43.7239C226.24 43.7979 226.299 43.8861 226.34 43.9833C226.38 44.0805 226.401 44.1848 226.401 44.2901Z" fill="white"/>
<path d="M226.501 40.1824C222.126 40.1824 222.307 41.1777 221.148 40.8158C219.989 40.4539 221.546 37.8843 226.501 37.8843C231.455 37.8843 231.935 39.35 231.709 40.1824C231.482 41.0148 228.032 40.1824 226.501 40.1824Z" fill="#6E3C12"/>
<path d="M247.451 40.1824C251.825 40.1824 251.644 41.1777 252.804 40.8158C253.963 40.4539 252.405 37.8843 247.451 37.8843C242.496 37.8843 242.016 39.35 242.243 40.1824C242.469 41.0148 245.956 40.1824 247.451 40.1824Z" fill="#6E3C12"/>
<path d="M250.403 45.3487C250.403 45.8855 250.244 46.4103 249.945 46.8567C249.647 47.3031 249.223 47.651 248.726 47.8564C248.23 48.0619 247.683 48.1156 247.156 48.0109C246.629 47.9062 246.145 47.6476 245.765 47.268C245.385 46.8884 245.126 46.4048 245.021 45.8782C244.916 45.3517 244.97 44.8059 245.176 44.31C245.381 43.814 245.73 43.39 246.177 43.0918C246.623 42.7935 247.149 42.6343 247.686 42.6343C248.407 42.6343 249.098 42.9203 249.608 43.4294C250.117 43.9384 250.403 44.6288 250.403 45.3487Z" fill="#6E3C12"/>
<path d="M247.279 44.2901C247.279 44.4476 247.232 44.6015 247.144 44.7324C247.057 44.8634 246.932 44.9654 246.786 45.0257C246.641 45.086 246.481 45.1017 246.326 45.071C246.171 45.0403 246.029 44.9645 245.918 44.8531C245.806 44.7418 245.731 44.5999 245.7 44.4454C245.669 44.291 245.685 44.1309 245.745 43.9854C245.805 43.8399 245.908 43.7156 246.039 43.6281C246.17 43.5406 246.324 43.4939 246.481 43.4939C246.586 43.4927 246.691 43.5124 246.788 43.552C246.885 43.5916 246.974 43.6502 247.048 43.7244C247.122 43.7986 247.181 43.8868 247.22 43.984C247.26 44.0811 247.28 44.1852 247.279 44.2901Z" fill="white"/>
<path d="M237.46 48.0632C235.785 48.0632 234.227 54.9576 234.743 55.4915C235.259 56.0253 239.362 56.152 240.078 55.4915C240.793 54.831 239.263 48.0632 237.46 48.0632Z" fill="#FCBB77"/>
<path d="M71.6823 150.729C72.2304 150.729 72.7663 150.891 73.2221 151.196C73.6779 151.5 74.0331 151.932 74.2429 152.438C74.4527 152.944 74.5075 153.501 74.4006 154.038C74.2937 154.575 74.0297 155.068 73.6421 155.455C73.2545 155.843 72.7606 156.106 72.223 156.213C71.6854 156.32 71.1281 156.265 70.6216 156.056C70.1152 155.846 69.6823 155.491 69.3778 155.036C69.0733 154.581 68.9107 154.045 68.9107 153.498C68.9107 153.134 68.9824 152.774 69.1217 152.438C69.261 152.102 69.4651 151.797 69.7225 151.54C69.9798 151.283 70.2854 151.079 70.6216 150.94C70.9579 150.801 71.3183 150.729 71.6823 150.729Z" fill="#6E3C12"/>
<path d="M70.5954 153.923C70.7574 153.921 70.9162 153.968 71.0517 154.056C71.1871 154.145 71.293 154.272 71.3558 154.421C71.4186 154.571 71.4355 154.735 71.4044 154.894C71.3732 155.053 71.2954 155.199 71.1808 155.313C71.0663 155.427 70.9202 155.505 70.7612 155.536C70.6023 155.567 70.4376 155.551 70.2883 155.488C70.139 155.425 70.0118 155.319 69.9229 155.184C69.834 155.049 69.7875 154.89 69.7893 154.728C69.7893 154.515 69.8742 154.31 70.0254 154.159C70.1766 154.008 70.3816 153.923 70.5954 153.923Z" fill="white"/>
<path d="M66.4199 153.86C66.4199 157.09 67.4344 156.954 67.0721 157.805C66.7098 158.655 64.0922 157.515 64.0922 153.86C64.0922 150.204 65.5776 149.833 66.4199 150.023C67.2623 150.213 66.4199 152.729 66.4199 153.86Z" fill="#B5B6B6"/>
<path d="M66.4199 132.47C66.4199 129.24 67.4344 129.376 67.0721 128.526C66.7098 127.675 64.0922 128.815 64.0922 132.47C64.0922 136.126 65.5776 136.488 66.4199 136.307C67.2623 136.126 66.4199 133.601 66.4199 132.47Z" fill="#B5B6B6"/>
<path d="M71.6823 129.494C72.2304 129.494 72.7663 129.656 73.2221 129.96C73.6779 130.265 74.0331 130.697 74.2429 131.203C74.4527 131.709 74.5075 132.265 74.4006 132.803C74.2937 133.34 74.0297 133.833 73.6421 134.22C73.2545 134.607 72.7606 134.871 72.223 134.978C71.6854 135.085 71.1281 135.03 70.6216 134.82C70.1152 134.611 69.6823 134.256 69.3778 133.801C69.0733 133.345 68.9107 132.81 68.9107 132.262C68.9107 131.899 68.9824 131.539 69.1217 131.203C69.261 130.867 69.4651 130.562 69.7225 130.305C69.9798 130.048 70.2854 129.844 70.6216 129.704C70.9579 129.565 71.3183 129.494 71.6823 129.494Z" fill="#6E3C12"/>
<path d="M70.5954 132.706C70.757 132.704 70.9155 132.75 71.0507 132.838C71.186 132.927 71.2919 133.053 71.355 133.202C71.418 133.351 71.4355 133.515 71.4051 133.673C71.3746 133.832 71.2977 133.978 71.1841 134.093C71.0705 134.207 70.9252 134.286 70.7669 134.318C70.6085 134.35 70.4441 134.334 70.2947 134.273C70.1452 134.212 70.0173 134.107 69.9273 133.973C69.8374 133.839 69.7893 133.681 69.7893 133.52C69.7893 133.306 69.8739 133.1 70.0248 132.947C70.1758 132.795 70.3808 132.708 70.5954 132.706Z" fill="white"/>
<path d="M74.4539 142.667C74.4539 144.378 81.4553 145.961 82.0078 145.382C82.5603 144.803 82.678 140.695 82.0078 139.953C81.3375 139.211 74.4539 140.849 74.4539 142.667Z" fill="#F9A771"/>
</svg>
