<svg width="460" height="464" viewBox="0 0 460 464" fill="none" xmlns="http://www.w3.org/2000/svg">
<g filter="url(#filter0_dddddd)">
<path d="M230 283.679C312.843 283.679 380 271.796 380 257.137C380 242.479 312.843 230.596 230 230.596C147.157 230.596 80 242.479 80 257.137C80 271.796 147.157 283.679 230 283.679Z" fill="#E3EFF5"/>
<path d="M255.908 53.6189L258.407 55.2639C261.28 57.1552 265.138 56.3516 267.023 53.4691L272.474 45.1351C274.359 42.2526 273.558 38.3827 270.685 36.4914L268.185 34.8464C265.312 32.9552 261.455 33.7587 259.569 36.6412L254.119 44.9752C252.233 47.8577 253.034 51.7276 255.908 53.6189Z" fill="#FED3A4"/>
<path d="M305.041 58.5348C305.041 58.5348 289.245 60.0704 276.963 64.0775C264.681 68.0846 247.653 83.4589 247.653 83.4589L263.232 57.3626L254.12 44.9688C254.12 44.9688 227.102 87.0753 227.636 92.827C228.17 98.5787 233.922 102.822 239.202 104.34C244.483 105.857 291.273 82.8319 291.273 82.8319L305.041 58.5348Z" fill="#4CC1BB"/>
<path d="M349.585 167.554H352.574C356.011 167.554 358.797 164.759 358.797 161.311V151.344C358.797 147.896 356.011 145.101 352.574 145.101H349.585C346.149 145.101 343.363 147.896 343.363 151.344V161.311C343.363 164.759 346.149 167.554 349.585 167.554Z" fill="#FED3A4"/>
<path d="M305.041 58.5348C305.041 58.5348 327.494 60.7519 334.74 64.8408C341.986 68.9297 356.994 102.822 359.775 110.755C362.555 118.687 359.775 156.332 359.775 156.332H342.421C342.421 156.332 343.988 127.455 342.031 117.17C340.075 106.884 329.876 94.0083 329.876 94.0083L305.041 79.052L304.416 67.2396L305.041 58.5348Z" fill="#4CC1BB"/>
<path d="M304.416 69.0206V138.65H276.745L277.678 63.6141L303.791 58.5348L304.416 69.0206Z" fill="#4CC1BB"/>
<path d="M304.416 69.0206V138.65H332.077L331.153 63.6141L305.041 58.5348L304.416 69.0206Z" fill="#4CC1BB"/>
<path d="M324.578 234.494H314.515C310.023 234.494 306.381 238.147 306.381 242.653V248.977C306.381 253.484 310.023 257.137 314.515 257.137H324.578C329.07 257.137 332.711 253.484 332.711 248.977V242.653C332.711 238.147 329.07 234.494 324.578 234.494Z" fill="#224E48"/>
<path d="M294.308 234.494H284.245C279.753 234.494 276.111 238.147 276.111 242.653V248.977C276.111 253.484 279.753 257.137 284.245 257.137H294.308C298.8 257.137 302.441 253.484 302.441 248.977V242.653C302.441 238.147 298.8 234.494 294.308 234.494Z" fill="#224E48"/>
<path d="M329.876 31.112C329.876 47.0768 318.482 67.2396 304.416 67.2396C290.35 67.2396 278.955 47.0768 278.955 31.112C278.955 15.1471 290.35 2.2171 304.416 2.2171C318.482 2.2171 329.876 15.1562 329.876 31.112Z" fill="#FED3A4"/>
<path d="M332.077 138.65H276.745V162.747H332.077V138.65Z" fill="#488279"/>
<path d="M332.077 159.258H307.015V239.373H332.077V159.258Z" fill="#488279"/>
<path d="M301.807 159.258H276.745V239.373H301.807V159.258Z" fill="#488279"/>
<path d="M321.29 4.54318C321.29 4.54318 310.584 -3.87086 293.212 2.22614C275.84 8.32314 271.22 37.6632 279.281 35.9822C297.07 32.3477 314.334 22.5434 314.334 22.5434C314.334 22.5434 323.11 37.0817 329.858 37.9267C336.606 38.7718 335.202 9.02279 321.29 4.54318Z" fill="#6E3C12"/>
<path d="M119.78 226.452L162.223 189.897H147.949L116.221 217.375L119.78 226.452Z" fill="#758B96"/>
<path d="M344.45 226.452L302.007 189.897H316.281L348.009 217.375L344.45 226.452Z" fill="#758B96"/>
<path d="M359.349 178.803H100.66V192.305H359.349V178.803Z" fill="#5E707A"/>
<path d="M294.027 159.476H350.409C351.232 159.476 352.047 159.639 352.807 159.955C353.566 160.271 354.257 160.734 354.838 161.318C355.419 161.902 355.88 162.595 356.194 163.358C356.508 164.121 356.669 164.939 356.668 165.764C356.668 166.588 356.506 167.405 356.192 168.167C355.877 168.928 355.416 169.621 354.835 170.204C354.254 170.787 353.564 171.249 352.804 171.565C352.045 171.88 351.231 172.043 350.409 172.043H294.027C293.204 172.044 292.389 171.882 291.629 171.567C290.869 171.252 290.178 170.79 289.596 170.207C289.013 169.624 288.552 168.931 288.237 168.169C287.921 167.406 287.759 166.589 287.759 165.764C287.759 164.096 288.42 162.497 289.595 161.318C290.77 160.138 292.365 159.476 294.027 159.476Z" fill="white"/>
<path d="M292.705 144.293H223.298V116.534L298.094 117.469L303.157 143.666L292.705 144.293Z" fill="#38C6F4"/>
<path d="M223.298 172.052V116.543H199.277V172.052H223.298Z" fill="#18728E"/>
<path d="M228.195 133.625L231.183 133.71C234.618 133.808 237.482 131.093 237.579 127.647L237.86 117.683C237.957 114.237 235.251 111.364 231.816 111.267L228.828 111.182C225.393 111.084 222.529 113.799 222.432 117.245L222.151 127.209C222.054 130.655 224.76 133.528 228.195 133.625Z" fill="#FDC88C"/>
<path d="M261.572 48.899L263.722 47.9815C266.668 46.7245 268.041 43.3096 266.788 40.3541L262.697 30.7048C261.444 27.7493 258.04 26.3723 255.094 27.6293L252.944 28.5468C249.998 29.8038 248.625 33.2187 249.878 36.1742L253.969 45.8235C255.222 48.7791 258.626 50.156 261.572 48.899Z" fill="#FDC88C"/>
<path d="M292.705 144.293H223.298V172.043L298.094 171.107L303.157 144.92L292.705 144.293Z" fill="#38C6F4"/>
<path d="M139.045 164.528V154.433C139.045 149.927 135.404 146.273 130.912 146.273H124.608C120.116 146.273 116.474 149.927 116.474 154.433V164.528C116.474 169.035 120.116 172.688 124.608 172.688H130.912C135.404 172.688 139.045 169.035 139.045 164.528Z" fill="#FDC88C"/>
<path d="M214.041 172.052V146.909H134.182V172.052H214.041Z" fill="#18728E"/>
<path d="M139.438 138.931L138.775 128.858C138.479 124.362 134.605 120.957 130.123 121.254L123.833 121.671C119.35 121.968 115.957 125.854 116.253 130.351L116.916 140.424C117.213 144.921 121.086 148.325 125.569 148.028L131.859 147.611C136.341 147.314 139.735 143.428 139.438 138.931Z" fill="#FDC88C"/>
<path d="M133.421 121.667L135.069 146.755L214.756 141.476L199.277 116.534L133.421 121.667Z" fill="#18728E"/>
<path d="M298.094 171.107L295.476 179.584C295.476 179.584 230.118 177.385 223.424 169.335C216.731 161.284 220.707 122.449 220.707 122.449H238.822C238.822 122.449 235.416 150.744 239.637 157.813C243.858 164.882 298.094 171.107 298.094 171.107Z" fill="#38C6F4"/>
<path d="M193.77 142.866C197.103 142.648 199.277 141.957 199.277 144.774C199.277 147.591 193.77 146.9 193.77 146.9L199.277 146.973V142.503L193.77 142.866Z" fill="#18728E"/>
<path d="M238.858 122.449C238.858 122.449 237.789 151.398 242.771 157.077C247.753 162.756 275.776 167.981 275.776 167.981C275.776 167.981 245.977 166.827 239.673 157.795C233.369 148.763 238.858 122.449 238.858 122.449Z" fill="#00BBF2"/>
<path d="M303.157 143.666C303.157 143.666 300.05 124.257 298.094 113.162C296.137 102.068 288.321 77.0802 285.287 69.0569C282.252 61.0336 265.478 35.4371 265.478 35.4371L250.814 40.4074C250.814 40.4074 264.771 65.2043 269.3 79.9606C273.829 94.717 276.238 117.506 276.238 117.506L303.157 143.666Z" fill="#38C6F4"/>
<path d="M319.207 173.551C303.293 173.551 283.194 162.111 283.194 148C283.194 133.889 303.293 122.458 319.207 122.458C335.12 122.458 348.009 133.898 348.009 148C348.009 162.102 335.111 173.551 319.207 173.551Z" fill="#FDC88C"/>
<path d="M322.739 172.379C317.685 165.882 332.702 160.476 332.132 147.991C331.561 135.506 323.418 131.226 323.346 123.794C323.273 116.361 336.026 113.162 336.026 113.162C336.026 113.162 331.959 120.704 337.747 125.066C343.535 129.427 353.951 144.511 347.294 157.868C340.636 171.225 329.079 180.502 322.739 172.379Z" fill="#B5B6B6"/>
<path d="M94.6549 185.554H365.309C366.193 185.554 367.068 185.379 367.884 185.04C368.701 184.701 369.443 184.204 370.068 183.577C370.692 182.95 371.188 182.206 371.526 181.386C371.865 180.567 372.039 179.689 372.039 178.803C372.04 177.916 371.867 177.037 371.529 176.217C371.191 175.396 370.696 174.651 370.071 174.023C369.446 173.395 368.703 172.897 367.886 172.557C367.069 172.218 366.193 172.043 365.309 172.043H94.6549C92.8693 172.045 91.1576 172.758 89.8958 174.026C88.634 175.293 87.9253 177.012 87.9253 178.803C87.9253 179.689 88.0993 180.567 88.4375 181.386C88.7757 182.206 89.2714 182.95 89.8963 183.577C90.5212 184.204 91.2631 184.701 92.0796 185.04C92.8961 185.379 93.7712 185.554 94.6549 185.554Z" fill="#758B96"/>
<path d="M124.409 192.305H110.523V260.599H124.409V192.305Z" fill="#758B96"/>
<path d="M126.057 242.172H108.884V262.653H126.057V242.172Z" fill="#5E707A"/>
<path d="M353.199 192.305H339.314V260.599H353.199V192.305Z" fill="#758B96"/>
<path d="M354.848 242.172H337.675V262.653H354.848V242.172Z" fill="#5E707A"/>
<path d="M294.018 43.8057C294.018 44.3448 293.858 44.8719 293.56 45.3202C293.261 45.7684 292.837 46.1178 292.34 46.3241C291.844 46.5305 291.298 46.5844 290.771 46.4793C290.243 46.3741 289.759 46.1145 289.379 45.7332C288.999 45.352 288.74 44.8663 288.636 44.3375C288.531 43.8087 288.585 43.2606 288.79 42.7625C288.996 42.2644 289.344 41.8387 289.791 41.5392C290.238 41.2396 290.763 41.0798 291.301 41.0798C292.021 41.0798 292.712 41.367 293.222 41.8782C293.732 42.3894 294.018 43.0827 294.018 43.8057Z" fill="#6E3C12"/>
<path d="M290.893 42.7063C290.893 42.8644 290.846 43.019 290.759 43.1505C290.671 43.282 290.547 43.3845 290.401 43.445C290.255 43.5055 290.095 43.5213 289.941 43.4905C289.786 43.4596 289.644 43.3835 289.532 43.2717C289.421 43.1598 289.345 43.0174 289.314 42.8622C289.284 42.7071 289.299 42.5464 289.36 42.4003C289.42 42.2541 289.522 42.1293 289.653 42.0414C289.784 41.9535 289.938 41.9066 290.096 41.9066C290.307 41.9066 290.51 41.9909 290.66 42.1408C290.809 42.2908 290.893 42.4942 290.893 42.7063Z" fill="white"/>
<path d="M291.038 38.6083C286.654 38.6083 286.844 39.6169 285.685 39.2534C284.526 38.8899 286.038 36.3457 291.038 36.3457C296.038 36.3457 296.472 37.8177 296.237 38.6446C296.001 39.4715 292.532 38.6083 291.038 38.6083Z" fill="#6E3C12"/>
<path d="M311.952 38.6083C316.326 38.6083 316.136 39.6169 317.295 39.2534C318.455 38.8899 316.906 36.3094 311.952 36.3094C306.997 36.3094 306.517 37.7814 306.744 38.6083C306.97 39.4351 310.421 38.6083 311.952 38.6083Z" fill="#6E3C12"/>
<path d="M314.904 43.8057C314.904 44.3448 314.745 44.8719 314.446 45.3202C314.148 45.7684 313.723 46.1178 313.227 46.3241C312.73 46.5305 312.184 46.5844 311.657 46.4793C311.13 46.3741 310.646 46.1145 310.266 45.7332C309.886 45.352 309.627 44.8663 309.522 44.3375C309.417 43.8087 309.471 43.2606 309.677 42.7625C309.882 42.2644 310.231 41.8387 310.677 41.5392C311.124 41.2396 311.65 41.0798 312.187 41.0798C312.908 41.0798 313.599 41.367 314.108 41.8782C314.618 42.3894 314.904 43.0827 314.904 43.8057Z" fill="#6E3C12"/>
<path d="M311.779 42.7062C311.781 42.8669 311.735 43.0245 311.647 43.1589C311.56 43.2933 311.434 43.3983 311.286 43.4607C311.138 43.523 310.976 43.5398 310.818 43.5089C310.661 43.478 310.517 43.4008 310.403 43.2871C310.29 43.1735 310.213 43.0285 310.182 42.8708C310.152 42.7131 310.168 42.5498 310.23 42.4016C310.293 42.2535 310.397 42.1273 310.531 42.0391C310.665 41.951 310.822 41.9048 310.982 41.9066C311.193 41.909 311.394 41.994 311.543 42.1434C311.692 42.2929 311.777 42.4949 311.779 42.7062Z" fill="white"/>
<path d="M301.961 46.5407C300.277 46.5407 298.719 53.4646 299.244 54.0007C299.769 54.5368 303.863 54.664 304.579 54.0007C305.294 53.3374 303.718 46.5407 301.961 46.5407Z" fill="#FCBB77"/>
<path d="M308.618 135.243C308.07 135.244 307.533 135.083 307.076 134.778C306.619 134.474 306.263 134.04 306.051 133.532C305.84 133.025 305.784 132.465 305.89 131.925C305.996 131.385 306.259 130.889 306.646 130.499C307.034 130.109 307.527 129.844 308.065 129.736C308.603 129.628 309.161 129.682 309.668 129.892C310.175 130.103 310.608 130.459 310.913 130.916C311.218 131.374 311.381 131.912 311.381 132.462C311.381 133.198 311.09 133.904 310.572 134.425C310.055 134.946 309.352 135.24 308.618 135.243Z" fill="#6E3C12"/>
<path d="M309.696 132.062C309.535 132.064 309.376 132.018 309.241 131.929C309.106 131.84 309 131.713 308.937 131.564C308.874 131.415 308.856 131.25 308.887 131.091C308.917 130.931 308.994 130.785 309.108 130.67C309.221 130.554 309.366 130.475 309.525 130.443C309.683 130.411 309.848 130.427 309.997 130.488C310.147 130.55 310.274 130.655 310.364 130.789C310.454 130.924 310.502 131.082 310.502 131.244C310.502 131.46 310.418 131.666 310.267 131.82C310.116 131.973 309.911 132.06 309.696 132.062Z" fill="white"/>
<path d="M313.881 132.099C313.881 128.855 312.857 129 313.229 128.137C313.6 127.274 316.209 128.428 316.209 132.099C316.209 135.77 314.714 136.142 313.881 135.96C313.048 135.779 313.881 133.234 313.881 132.099Z" fill="#B5B6B6"/>
<path d="M313.881 153.561C313.881 156.805 312.857 156.668 313.229 157.522C313.6 158.377 316.209 157.232 316.209 153.561C316.209 149.89 314.714 149.526 313.881 149.708C313.048 149.89 313.881 152.452 313.881 153.561Z" fill="#B5B6B6"/>
<path d="M308.618 156.532C308.07 156.534 307.533 156.372 307.076 156.068C306.619 155.763 306.263 155.33 306.051 154.822C305.84 154.314 305.784 153.755 305.89 153.215C305.996 152.675 306.259 152.178 306.646 151.789C307.034 151.399 307.527 151.133 308.065 151.025C308.603 150.917 309.161 150.972 309.668 151.182C310.175 151.392 310.608 151.748 310.913 152.206C311.218 152.663 311.381 153.201 311.381 153.752C311.381 154.487 311.09 155.193 310.572 155.714C310.055 156.236 309.352 156.53 308.618 156.532Z" fill="#6E3C12"/>
<path d="M309.696 153.343C309.534 153.344 309.375 153.298 309.24 153.209C309.105 153.119 308.999 152.992 308.936 152.842C308.873 152.692 308.856 152.527 308.887 152.368C308.918 152.208 308.996 152.062 309.111 151.947C309.225 151.832 309.371 151.754 309.53 151.722C309.689 151.691 309.854 151.708 310.003 151.771C310.153 151.834 310.28 151.94 310.369 152.076C310.458 152.212 310.504 152.371 310.502 152.534C310.502 152.748 310.417 152.954 310.266 153.106C310.115 153.257 309.91 153.343 309.696 153.343Z" fill="white"/>
<path d="M305.847 143.338C305.847 141.621 298.836 140.04 298.293 140.613C297.75 141.185 297.623 145.319 298.293 146.064C298.963 146.81 305.847 145.174 305.847 143.338Z" fill="#F9A771"/>
</g>
<defs>
<filter id="filter0_dddddd" x="0" y="0.00949097" width="460" height="463.669" filterUnits="userSpaceOnUse" color-interpolation-filters="sRGB">
<feFlood flood-opacity="0" result="BackgroundImageFix"/>
<feColorMatrix in="SourceAlpha" type="matrix" values="0 0 0 0 0 0 0 0 0 0 0 0 0 0 0 0 0 0 127 0"/>
<feOffset dy="2.76726"/>
<feGaussianBlur stdDeviation="1.1069"/>
<feColorMatrix type="matrix" values="0 0 0 0 0 0 0 0 0 0 0 0 0 0 0 0 0 0 0.07 0"/>
<feBlend mode="normal" in2="BackgroundImageFix" result="effect1_dropShadow"/>
<feColorMatrix in="SourceAlpha" type="matrix" values="0 0 0 0 0 0 0 0 0 0 0 0 0 0 0 0 0 0 127 0"/>
<feOffset dy="6.6501"/>
<feGaussianBlur stdDeviation="2.66004"/>
<feColorMatrix type="matrix" values="0 0 0 0 0 0 0 0 0 0 0 0 0 0 0 0 0 0 0.0503198 0"/>
<feBlend mode="normal" in2="effect1_dropShadow" result="effect2_dropShadow"/>
<feColorMatrix in="SourceAlpha" type="matrix" values="0 0 0 0 0 0 0 0 0 0 0 0 0 0 0 0 0 0 127 0"/>
<feOffset dy="12.5216"/>
<feGaussianBlur stdDeviation="5.00862"/>
<feColorMatrix type="matrix" values="0 0 0 0 0 0 0 0 0 0 0 0 0 0 0 0 0 0 0.0417275 0"/>
<feBlend mode="normal" in2="effect2_dropShadow" result="effect3_dropShadow"/>
<feColorMatrix in="SourceAlpha" type="matrix" values="0 0 0 0 0 0 0 0 0 0 0 0 0 0 0 0 0 0 127 0"/>
<feOffset dy="22.3363"/>
<feGaussianBlur stdDeviation="8.93452"/>
<feColorMatrix type="matrix" values="0 0 0 0 0 0 0 0 0 0 0 0 0 0 0 0 0 0 0.035 0"/>
<feBlend mode="normal" in2="effect3_dropShadow" result="effect4_dropShadow"/>
<feColorMatrix in="SourceAlpha" type="matrix" values="0 0 0 0 0 0 0 0 0 0 0 0 0 0 0 0 0 0 127 0"/>
<feOffset dy="41.7776"/>
<feGaussianBlur stdDeviation="16.711"/>
<feColorMatrix type="matrix" values="0 0 0 0 0 0 0 0 0 0 0 0 0 0 0 0 0 0 0.0282725 0"/>
<feBlend mode="normal" in2="effect4_dropShadow" result="effect5_dropShadow"/>
<feColorMatrix in="SourceAlpha" type="matrix" values="0 0 0 0 0 0 0 0 0 0 0 0 0 0 0 0 0 0 127 0"/>
<feOffset dy="100"/>
<feGaussianBlur stdDeviation="40"/>
<feColorMatrix type="matrix" values="0 0 0 0 0 0 0 0 0 0 0 0 0 0 0 0 0 0 0.0196802 0"/>
<feBlend mode="normal" in2="effect5_dropShadow" result="effect6_dropShadow"/>
<feBlend mode="normal" in="SourceGraphic" in2="effect6_dropShadow" result="shape"/>
</filter>
</defs>
</svg>
