<svg width="461" height="460" viewBox="0 0 461 460" fill="none" xmlns="http://www.w3.org/2000/svg">
<g filter="url(#filter0_dddddd)">
<path d="M230.5 279.118C313.343 279.118 380.5 267.285 380.5 252.689C380.5 238.093 313.343 226.26 230.5 226.26C147.657 226.26 80.5 238.093 80.5 252.689C80.5 267.285 147.657 279.118 230.5 279.118Z" fill="#E3EFF5"/>
<path d="M275.008 144.604H265.607C263.941 144.604 262.59 145.953 262.59 147.617V163.948C262.59 165.612 263.941 166.961 265.607 166.961H275.008C276.674 166.961 278.024 165.612 278.024 163.948V147.617C278.024 145.953 276.674 144.604 275.008 144.604Z" fill="#FED3A4"/>
<path d="M316.355 58.3959C316.355 58.3959 293.893 60.6036 286.647 64.6751C279.401 68.7466 264.366 102.495 261.649 110.394C258.931 118.293 261.649 155.778 261.649 155.778H279.012C279.012 155.778 277.436 127.024 279.392 116.782C281.348 106.539 291.538 93.7187 291.538 93.7187L316.355 78.8259L316.98 67.0637L316.355 58.3959Z" fill="#4CC1BB"/>
<path d="M316.971 68.8371V138.171H344.642L343.709 65.6251L317.596 58.3959L316.971 68.8371Z" fill="#4CC1BB"/>
<path d="M316.971 68.8371V138.171H289.31L290.243 63.4536L316.355 58.3959L316.971 68.8371Z" fill="#4CC1BB"/>
<path d="M296.809 256.146H306.872C311.364 256.146 315.006 252.508 315.006 248.021V241.723C315.006 237.236 311.364 233.598 306.872 233.598H296.809C292.317 233.598 288.676 237.236 288.676 241.723V248.021C288.676 252.508 292.317 256.146 296.809 256.146Z" fill="#224E48"/>
<path d="M327.079 256.146H337.142C341.634 256.146 345.276 252.508 345.276 248.021V241.723C345.276 237.236 341.634 233.598 337.142 233.598H327.079C322.587 233.598 318.946 237.236 318.946 241.723V248.021C318.946 252.508 322.587 256.146 327.079 256.146Z" fill="#224E48"/>
<path d="M289.31 162.156H344.642V138.162H289.31V162.156Z" fill="#488279"/>
<path d="M289.31 238.475H314.372V158.7H289.31V238.475Z" fill="#488279"/>
<path d="M319.58 238.475H344.642V158.7H319.58V238.475Z" fill="#488279"/>
<path d="M342.667 225.6L300.233 189.201H314.508L346.236 216.561L342.667 225.6Z" fill="#758B96"/>
<path d="M118.007 225.6L160.45 189.201H146.166L114.438 216.561L118.007 225.6Z" fill="#758B96"/>
<path d="M103.107 191.589L361.796 191.589V178.144L103.107 178.144V191.589Z" fill="#5E707A"/>
<path d="M108.243 171.422H172.243C173.598 171.422 174.697 170.324 174.697 168.97V161.351C174.697 159.997 173.598 158.899 172.243 158.899H108.243C106.887 158.899 105.788 159.997 105.788 161.351V168.97C105.788 170.324 106.887 171.422 108.243 171.422Z" fill="#93ADBA"/>
<path d="M264.057 112.361L264.06 109.376C264.064 105.943 261.281 103.157 257.844 103.153L247.908 103.143C244.472 103.139 241.683 105.919 241.679 109.352L241.676 112.338C241.672 115.771 244.455 118.557 247.892 118.56L257.828 118.571C261.264 118.574 264.053 115.794 264.057 112.361Z" fill="#FDC88C"/>
<path d="M161.111 127.603C161.111 127.603 160.658 120.365 168.81 110.864C176.962 101.364 180.92 97.8264 186.327 98.2788C191.734 98.7312 252.111 101.726 252.111 101.726L252.881 116.148L176.663 117.053L161.111 127.603Z" fill="#38C6F4"/>
<path d="M252.7 112.792L185.702 117.08L252.881 116.148L252.7 112.792Z" fill="#00BBF2"/>
<path d="M169.752 143.789H239.159V116.148L164.363 117.08L159.29 143.165L169.752 143.789Z" fill="#38C6F4"/>
<path d="M169.752 143.789H239.159V171.422L164.363 170.49L159.29 144.414L169.752 143.789Z" fill="#38C6F4"/>
<path d="M345.973 163.93V153.878C345.973 149.39 342.332 145.753 337.839 145.753H331.536C327.043 145.753 323.402 149.39 323.402 153.878V163.93C323.402 168.417 327.043 172.055 331.536 172.055H337.839C342.332 172.055 345.973 168.417 345.973 163.93Z" fill="#FDC88C"/>
<path d="M337.379 86.4775L331.6 78.2483C329.02 74.5748 323.948 73.6859 320.27 76.2629L315.11 79.8794C311.432 82.4564 310.542 87.5235 313.122 91.197L318.901 99.4262C321.481 103.1 326.553 103.989 330.231 101.412L335.391 97.7951C339.069 95.2181 339.959 90.1511 337.379 86.4775Z" fill="#FDC88C"/>
<path d="M264.954 146.386C267.916 143.066 327.206 102.766 327.206 102.766L312.814 82.264H312.75C311.048 83.4222 266.739 113.696 263.17 114.891C259.601 116.085 240.409 116.103 239.213 116.103H239.159V171.376H328.275V146.386C328.275 146.386 265 148.178 264.954 146.386Z" fill="#18728E"/>
<path d="M232.321 106.236L229.333 106.32C225.898 106.417 223.192 109.278 223.289 112.709L223.57 122.631C223.667 126.062 226.53 128.766 229.966 128.669L232.953 128.584C236.389 128.487 239.095 125.627 238.997 122.195L238.717 112.274C238.619 108.842 235.756 106.139 232.321 106.236Z" fill="#FDC88C"/>
<path d="M162.461 166.88L165.078 175.321C165.078 175.321 230.437 173.132 237.13 165.106C243.823 157.081 239.847 118.428 239.847 118.428H221.732C221.732 118.428 225.138 146.603 220.917 153.643C216.696 160.682 162.461 166.88 162.461 166.88Z" fill="#38C6F4"/>
<path d="M221.696 118.428C221.696 118.428 222.765 147.246 217.783 152.901C212.802 158.555 184.778 163.758 184.778 163.758C184.778 163.758 214.577 162.609 220.881 153.624C227.185 144.64 221.696 118.428 221.696 118.428Z" fill="#00BBF2"/>
<path d="M143.25 172.924C159.155 172.924 179.226 161.523 179.226 147.472C179.226 133.421 159.118 122.038 143.214 122.038C127.309 122.038 114.402 133.43 114.402 147.472C114.402 161.514 127.336 172.924 143.25 172.924Z" fill="#FDC88C"/>
<path d="M139.69 171.756C144.753 165.287 129.727 159.904 130.307 147.472C130.886 135.04 139.02 130.779 139.083 123.377C139.147 115.976 126.403 112.792 126.403 112.792C126.403 112.792 130.47 120.301 124.682 124.644C118.894 128.987 108.487 143.97 115.145 157.307C121.802 170.643 133.368 179.845 139.69 171.756Z" fill="#B5B6B6"/>
<path d="M92.6279 184.876L372.285 184.876C373.525 184.876 374.531 183.871 374.531 182.632V173.674C374.531 172.435 373.525 171.431 372.285 171.431L92.6279 171.431C91.3873 171.431 90.3817 172.435 90.3817 173.674V182.632C90.3817 183.871 91.3873 184.876 92.6279 184.876Z" fill="#758B96"/>
<path d="M338.048 259.593H351.933V191.589H338.048V259.593Z" fill="#758B96"/>
<path d="M336.399 261.656H353.572V241.262H336.399V261.656Z" fill="#5E707A"/>
<path d="M109.257 259.593H123.142L123.142 191.589H109.257L109.257 259.593Z" fill="#758B96"/>
<path d="M107.609 261.656H124.782V241.262H107.609V261.656Z" fill="#5E707A"/>
<path d="M312.183 102.407L310.841 105.075C309.298 108.142 310.536 111.878 313.607 113.42L322.485 117.876C325.556 119.418 329.296 118.181 330.839 115.113L332.181 112.446C333.724 109.378 332.486 105.642 329.415 104.1L320.537 99.6439C317.466 98.1025 313.726 99.3395 312.183 102.407Z" fill="#FED3A4"/>
<path d="M344.506 127.594V131.882L321.491 118.528L344.506 127.594Z" fill="#6AB4A6"/>
<path d="M317.596 58.3959C317.596 58.3959 338.972 60.9021 345.149 65.5256C351.326 70.149 372.113 111.878 374.522 117.46C376.931 123.043 372.656 128.191 365.51 129.973C353.509 132.959 321.491 118.528 321.491 118.528L328.981 103.834L353.781 111.642L336.825 80.7079L317.596 58.3959Z" fill="#4CC1BB"/>
<path d="M291.538 31.0894C291.538 46.9865 302.914 67.0637 316.98 67.0637C331.046 67.0637 342.441 46.9865 342.441 31.0894C342.441 15.1923 331.037 2.31726 316.98 2.31726C302.923 2.31726 291.538 15.2014 291.538 31.0894Z" fill="#FED3A4"/>
<path d="M300.097 4.63346C300.097 4.63346 310.803 -3.74485 328.175 2.32626C345.547 8.39736 350.167 37.6129 342.106 35.939C324.308 32.3199 307.053 22.5572 307.053 22.5572C307.053 22.5572 298.277 37.0338 291.52 37.8752C284.763 38.7167 286.194 9.09404 300.097 4.63346Z" fill="#6E3C12"/>
<path d="M309.526 45.3487C309.526 45.8855 309.367 46.4103 309.068 46.8567C308.769 47.3031 308.345 47.651 307.849 47.8564C307.352 48.0619 306.806 48.1156 306.279 48.0109C305.752 47.9062 305.267 47.6476 304.887 47.268C304.507 46.8884 304.249 46.4048 304.144 45.8782C304.039 45.3517 304.093 44.8059 304.298 44.31C304.504 43.814 304.852 43.39 305.299 43.0918C305.746 42.7935 306.271 42.6343 306.809 42.6343C307.529 42.6343 308.221 42.9203 308.73 43.4294C309.24 43.9384 309.526 44.6288 309.526 45.3487Z" fill="#6E3C12"/>
<path d="M306.401 44.2901C306.403 44.4497 306.357 44.6063 306.27 44.7399C306.182 44.8735 306.057 44.9781 305.91 45.0405C305.763 45.1028 305.6 45.1201 305.443 45.09C305.287 45.06 305.142 44.984 305.028 44.8718C304.915 44.7595 304.837 44.616 304.805 44.4596C304.773 44.3032 304.789 44.1408 304.85 43.9931C304.91 43.8454 305.014 43.7191 305.146 43.6303C305.279 43.5414 305.435 43.4939 305.595 43.4939C305.701 43.4927 305.805 43.5124 305.903 43.5519C306.001 43.5914 306.09 43.6498 306.165 43.7239C306.24 43.7979 306.299 43.8861 306.34 43.9833C306.38 44.0805 306.401 44.1848 306.401 44.2901Z" fill="white"/>
<path d="M306.501 40.1824C302.126 40.1824 302.307 41.1777 301.148 40.8158C299.989 40.4539 301.546 37.8843 306.501 37.8843C311.455 37.8843 311.935 39.35 311.709 40.1824C311.482 41.0148 308.032 40.1824 306.501 40.1824Z" fill="#6E3C12"/>
<path d="M327.451 40.1824C331.825 40.1824 331.644 41.1777 332.804 40.8158C333.963 40.4539 332.405 37.8843 327.451 37.8843C322.496 37.8843 322.016 39.35 322.243 40.1824C322.469 41.0148 325.956 40.1824 327.451 40.1824Z" fill="#6E3C12"/>
<path d="M330.403 45.3487C330.403 45.8855 330.244 46.4103 329.945 46.8567C329.647 47.3031 329.223 47.651 328.726 47.8564C328.23 48.0619 327.683 48.1156 327.156 48.0109C326.629 47.9062 326.145 47.6476 325.765 47.268C325.385 46.8884 325.126 46.4048 325.021 45.8782C324.916 45.3517 324.97 44.8059 325.176 44.31C325.381 43.814 325.73 43.39 326.177 43.0918C326.623 42.7935 327.149 42.6343 327.686 42.6343C328.407 42.6343 329.098 42.9203 329.608 43.4294C330.117 43.9384 330.403 44.6288 330.403 45.3487Z" fill="#6E3C12"/>
<path d="M327.279 44.2901C327.279 44.4476 327.232 44.6015 327.144 44.7324C327.057 44.8634 326.932 44.9654 326.786 45.0257C326.641 45.086 326.481 45.1017 326.326 45.071C326.171 45.0403 326.029 44.9645 325.918 44.8531C325.806 44.7418 325.731 44.5999 325.7 44.4454C325.669 44.291 325.685 44.1309 325.745 43.9854C325.805 43.8399 325.908 43.7156 326.039 43.6281C326.17 43.5406 326.324 43.4939 326.481 43.4939C326.586 43.4927 326.691 43.5124 326.788 43.552C326.885 43.5916 326.974 43.6502 327.048 43.7244C327.122 43.7986 327.181 43.8868 327.22 43.984C327.26 44.0811 327.28 44.1852 327.279 44.2901Z" fill="white"/>
<path d="M317.46 48.0632C315.785 48.0632 314.227 54.9576 314.743 55.4915C315.259 56.0253 319.362 56.152 320.078 55.4915C320.793 54.831 319.263 48.0632 317.46 48.0632Z" fill="#FCBB77"/>
<path d="M151.682 150.729C152.23 150.729 152.766 150.891 153.222 151.196C153.678 151.5 154.033 151.932 154.243 152.438C154.453 152.944 154.508 153.501 154.401 154.038C154.294 154.575 154.03 155.068 153.642 155.455C153.254 155.843 152.761 156.106 152.223 156.213C151.685 156.32 151.128 156.265 150.622 156.056C150.115 155.846 149.682 155.491 149.378 155.036C149.073 154.581 148.911 154.045 148.911 153.498C148.911 153.134 148.982 152.774 149.122 152.438C149.261 152.102 149.465 151.797 149.722 151.54C149.98 151.283 150.285 151.079 150.622 150.94C150.958 150.801 151.318 150.729 151.682 150.729Z" fill="#6E3C12"/>
<path d="M150.595 153.923C150.757 153.921 150.916 153.968 151.052 154.056C151.187 154.145 151.293 154.272 151.356 154.421C151.419 154.571 151.436 154.735 151.404 154.894C151.373 155.053 151.295 155.199 151.181 155.313C151.066 155.427 150.92 155.505 150.761 155.536C150.602 155.567 150.438 155.551 150.288 155.488C150.139 155.425 150.012 155.319 149.923 155.184C149.834 155.049 149.788 154.89 149.789 154.728C149.789 154.515 149.874 154.31 150.025 154.159C150.177 154.008 150.382 153.923 150.595 153.923Z" fill="white"/>
<path d="M146.42 153.86C146.42 157.09 147.434 156.954 147.072 157.805C146.71 158.655 144.092 157.515 144.092 153.86C144.092 150.204 145.578 149.833 146.42 150.023C147.262 150.213 146.42 152.729 146.42 153.86Z" fill="#B5B6B6"/>
<path d="M146.42 132.47C146.42 129.24 147.434 129.376 147.072 128.526C146.71 127.675 144.092 128.815 144.092 132.47C144.092 136.126 145.578 136.488 146.42 136.307C147.262 136.126 146.42 133.601 146.42 132.47Z" fill="#B5B6B6"/>
<path d="M151.682 129.494C152.23 129.494 152.766 129.656 153.222 129.96C153.678 130.265 154.033 130.697 154.243 131.203C154.453 131.709 154.508 132.265 154.401 132.803C154.294 133.34 154.03 133.833 153.642 134.22C153.254 134.607 152.761 134.871 152.223 134.978C151.685 135.085 151.128 135.03 150.622 134.82C150.115 134.611 149.682 134.256 149.378 133.801C149.073 133.345 148.911 132.81 148.911 132.262C148.911 131.899 148.982 131.539 149.122 131.203C149.261 130.867 149.465 130.562 149.722 130.305C149.98 130.048 150.285 129.844 150.622 129.704C150.958 129.565 151.318 129.494 151.682 129.494Z" fill="#6E3C12"/>
<path d="M150.595 132.706C150.757 132.704 150.915 132.75 151.051 132.838C151.186 132.927 151.292 133.053 151.355 133.202C151.418 133.351 151.435 133.515 151.405 133.673C151.375 133.832 151.298 133.978 151.184 134.093C151.07 134.207 150.925 134.286 150.767 134.318C150.608 134.35 150.444 134.334 150.295 134.273C150.145 134.212 150.017 134.107 149.927 133.973C149.837 133.839 149.789 133.681 149.789 133.52C149.789 133.306 149.874 133.1 150.025 132.947C150.176 132.795 150.381 132.708 150.595 132.706Z" fill="white"/>
<path d="M154.454 142.667C154.454 144.378 161.455 145.961 162.008 145.382C162.56 144.803 162.678 140.695 162.008 139.953C161.338 139.211 154.454 140.849 154.454 142.667Z" fill="#F9A771"/>
</g>
<defs>
<filter id="filter0_dddddd" x="0" y="0" width="461" height="460" filterUnits="userSpaceOnUse" color-interpolation-filters="sRGB">
<feFlood flood-opacity="0" result="BackgroundImageFix"/>
<feColorMatrix in="SourceAlpha" type="matrix" values="0 0 0 0 0 0 0 0 0 0 0 0 0 0 0 0 0 0 127 0"/>
<feOffset dy="2.76726"/>
<feGaussianBlur stdDeviation="1.1069"/>
<feColorMatrix type="matrix" values="0 0 0 0 0 0 0 0 0 0 0 0 0 0 0 0 0 0 0.07 0"/>
<feBlend mode="normal" in2="BackgroundImageFix" result="effect1_dropShadow"/>
<feColorMatrix in="SourceAlpha" type="matrix" values="0 0 0 0 0 0 0 0 0 0 0 0 0 0 0 0 0 0 127 0"/>
<feOffset dy="6.6501"/>
<feGaussianBlur stdDeviation="2.66004"/>
<feColorMatrix type="matrix" values="0 0 0 0 0 0 0 0 0 0 0 0 0 0 0 0 0 0 0.0503198 0"/>
<feBlend mode="normal" in2="effect1_dropShadow" result="effect2_dropShadow"/>
<feColorMatrix in="SourceAlpha" type="matrix" values="0 0 0 0 0 0 0 0 0 0 0 0 0 0 0 0 0 0 127 0"/>
<feOffset dy="12.5216"/>
<feGaussianBlur stdDeviation="5.00862"/>
<feColorMatrix type="matrix" values="0 0 0 0 0 0 0 0 0 0 0 0 0 0 0 0 0 0 0.0417275 0"/>
<feBlend mode="normal" in2="effect2_dropShadow" result="effect3_dropShadow"/>
<feColorMatrix in="SourceAlpha" type="matrix" values="0 0 0 0 0 0 0 0 0 0 0 0 0 0 0 0 0 0 127 0"/>
<feOffset dy="22.3363"/>
<feGaussianBlur stdDeviation="8.93452"/>
<feColorMatrix type="matrix" values="0 0 0 0 0 0 0 0 0 0 0 0 0 0 0 0 0 0 0.035 0"/>
<feBlend mode="normal" in2="effect3_dropShadow" result="effect4_dropShadow"/>
<feColorMatrix in="SourceAlpha" type="matrix" values="0 0 0 0 0 0 0 0 0 0 0 0 0 0 0 0 0 0 127 0"/>
<feOffset dy="41.7776"/>
<feGaussianBlur stdDeviation="16.711"/>
<feColorMatrix type="matrix" values="0 0 0 0 0 0 0 0 0 0 0 0 0 0 0 0 0 0 0.0282725 0"/>
<feBlend mode="normal" in2="effect4_dropShadow" result="effect5_dropShadow"/>
<feColorMatrix in="SourceAlpha" type="matrix" values="0 0 0 0 0 0 0 0 0 0 0 0 0 0 0 0 0 0 127 0"/>
<feOffset dy="100"/>
<feGaussianBlur stdDeviation="40"/>
<feColorMatrix type="matrix" values="0 0 0 0 0 0 0 0 0 0 0 0 0 0 0 0 0 0 0.0196802 0"/>
<feBlend mode="normal" in2="effect5_dropShadow" result="effect6_dropShadow"/>
<feBlend mode="normal" in="SourceGraphic" in2="effect6_dropShadow" result="shape"/>
</filter>
</defs>
</svg>
