<svg width="300" height="284" viewBox="0 0 300 284" fill="none" xmlns="http://www.w3.org/2000/svg">
<path d="M150 283.679C232.843 283.679 300 271.796 300 257.137C300 242.479 232.843 230.596 150 230.596C67.1573 230.596 0 242.479 0 257.137C0 271.796 67.1573 283.679 150 283.679Z" fill="#E3EFF5"/>
<path d="M175.908 53.6189L178.407 55.2639C181.28 57.1552 185.138 56.3516 187.023 53.4691L192.474 45.1351C194.359 42.2526 193.558 38.3827 190.685 36.4914L188.185 34.8464C185.312 32.9552 181.455 33.7587 179.569 36.6412L174.119 44.9752C172.233 47.8577 173.034 51.7276 175.908 53.6189Z" fill="#FED3A4"/>
<path d="M225.041 58.5348C225.041 58.5348 209.245 60.0704 196.963 64.0775C184.681 68.0846 167.653 83.4589 167.653 83.4589L183.232 57.3626L174.12 44.9688C174.12 44.9688 147.102 87.0753 147.636 92.827C148.17 98.5787 153.922 102.822 159.202 104.34C164.483 105.857 211.273 82.8319 211.273 82.8319L225.041 58.5348Z" fill="#4CC1BB"/>
<path d="M269.585 167.554H272.574C276.011 167.554 278.797 164.759 278.797 161.311V151.344C278.797 147.896 276.011 145.101 272.574 145.101H269.585C266.149 145.101 263.363 147.896 263.363 151.344V161.311C263.363 164.759 266.149 167.554 269.585 167.554Z" fill="#FED3A4"/>
<path d="M225.041 58.5348C225.041 58.5348 247.494 60.7519 254.74 64.8408C261.986 68.9297 276.994 102.822 279.775 110.755C282.555 118.687 279.775 156.332 279.775 156.332H262.421C262.421 156.332 263.988 127.455 262.031 117.17C260.075 106.884 249.876 94.0083 249.876 94.0083L225.041 79.052L224.416 67.2396L225.041 58.5348Z" fill="#4CC1BB"/>
<path d="M224.416 69.0206V138.65H196.745L197.678 63.6141L223.791 58.5348L224.416 69.0206Z" fill="#4CC1BB"/>
<path d="M224.416 69.0206V138.65H252.077L251.153 63.6141L225.041 58.5348L224.416 69.0206Z" fill="#4CC1BB"/>
<path d="M244.578 234.494H234.515C230.023 234.494 226.381 238.147 226.381 242.653V248.977C226.381 253.484 230.023 257.137 234.515 257.137H244.578C249.07 257.137 252.711 253.484 252.711 248.977V242.653C252.711 238.147 249.07 234.494 244.578 234.494Z" fill="#224E48"/>
<path d="M214.308 234.494H204.245C199.753 234.494 196.111 238.147 196.111 242.653V248.977C196.111 253.484 199.753 257.137 204.245 257.137H214.308C218.8 257.137 222.441 253.484 222.441 248.977V242.653C222.441 238.147 218.8 234.494 214.308 234.494Z" fill="#224E48"/>
<path d="M249.876 31.112C249.876 47.0768 238.482 67.2396 224.416 67.2396C210.35 67.2396 198.955 47.0768 198.955 31.112C198.955 15.1471 210.35 2.2171 224.416 2.2171C238.482 2.2171 249.876 15.1562 249.876 31.112Z" fill="#FED3A4"/>
<path d="M252.077 138.65H196.745V162.747H252.077V138.65Z" fill="#488279"/>
<path d="M252.077 159.258H227.015V239.373H252.077V159.258Z" fill="#488279"/>
<path d="M221.807 159.258H196.745V239.373H221.807V159.258Z" fill="#488279"/>
<path d="M241.29 4.54318C241.29 4.54318 230.584 -3.87086 213.212 2.22614C195.84 8.32314 191.22 37.6632 199.281 35.9822C217.07 32.3477 234.334 22.5434 234.334 22.5434C234.334 22.5434 243.11 37.0817 249.858 37.9267C256.606 38.7718 255.202 9.02279 241.29 4.54318Z" fill="#6E3C12"/>
<path d="M39.7802 226.452L82.2233 189.897H67.9488L36.2206 217.375L39.7802 226.452Z" fill="#758B96"/>
<path d="M264.45 226.452L222.007 189.897H236.281L268.009 217.375L264.45 226.452Z" fill="#758B96"/>
<path d="M279.349 178.803H20.66V192.305H279.349V178.803Z" fill="#5E707A"/>
<path d="M214.027 159.476H270.409C271.232 159.476 272.047 159.639 272.807 159.955C273.566 160.271 274.257 160.734 274.838 161.318C275.419 161.902 275.88 162.595 276.194 163.358C276.508 164.121 276.669 164.939 276.668 165.764C276.668 166.588 276.506 167.405 276.192 168.167C275.877 168.928 275.416 169.621 274.835 170.204C274.254 170.787 273.564 171.249 272.804 171.565C272.045 171.88 271.231 172.043 270.409 172.043H214.027C213.204 172.044 212.389 171.882 211.629 171.567C210.869 171.252 210.178 170.79 209.596 170.207C209.013 169.624 208.552 168.931 208.237 168.169C207.921 167.406 207.759 166.589 207.759 165.764C207.759 164.096 208.42 162.497 209.595 161.318C210.77 160.138 212.365 159.476 214.027 159.476Z" fill="white"/>
<path d="M212.705 144.293H143.298V116.534L218.094 117.469L223.157 143.666L212.705 144.293Z" fill="#38C6F4"/>
<path d="M143.298 172.052V116.543H119.277V172.052H143.298Z" fill="#18728E"/>
<path d="M148.195 133.625L151.183 133.71C154.618 133.808 157.482 131.093 157.579 127.647L157.86 117.683C157.957 114.237 155.251 111.364 151.816 111.267L148.828 111.182C145.393 111.084 142.529 113.799 142.432 117.245L142.151 127.209C142.054 130.655 144.76 133.528 148.195 133.625Z" fill="#FDC88C"/>
<path d="M181.572 48.899L183.722 47.9815C186.668 46.7245 188.041 43.3096 186.788 40.3541L182.697 30.7048C181.444 27.7493 178.04 26.3723 175.094 27.6293L172.944 28.5468C169.998 29.8038 168.625 33.2187 169.878 36.1742L173.969 45.8235C175.222 48.7791 178.626 50.156 181.572 48.899Z" fill="#FDC88C"/>
<path d="M212.705 144.293H143.298V172.043L218.094 171.107L223.157 144.92L212.705 144.293Z" fill="#38C6F4"/>
<path d="M59.0453 164.528V154.433C59.0453 149.927 55.4038 146.273 50.9118 146.273H44.6078C40.1158 146.273 36.4743 149.927 36.4743 154.433V164.528C36.4743 169.035 40.1158 172.688 44.6078 172.688H50.9118C55.4038 172.688 59.0453 169.035 59.0453 164.528Z" fill="#FDC88C"/>
<path d="M134.041 172.052V146.909H54.1815V172.052H134.041Z" fill="#18728E"/>
<path d="M59.4384 138.931L58.775 128.858C58.4789 124.362 54.6052 120.957 50.1229 121.254L43.8327 121.671C39.3504 121.968 35.9569 125.854 36.253 130.351L36.9164 140.424C37.2126 144.921 41.0862 148.325 45.5685 148.028L51.8587 147.611C56.341 147.314 59.7345 143.428 59.4384 138.931Z" fill="#FDC88C"/>
<path d="M53.4207 121.667L55.0691 146.755L134.756 141.476L119.277 116.534L53.4207 121.667Z" fill="#18728E"/>
<path d="M218.094 171.107L215.476 179.584C215.476 179.584 150.118 177.385 143.424 169.335C136.731 161.284 140.707 122.449 140.707 122.449H158.822C158.822 122.449 155.416 150.744 159.637 157.813C163.858 164.882 218.094 171.107 218.094 171.107Z" fill="#38C6F4"/>
<path d="M113.77 142.866C117.103 142.648 119.277 141.957 119.277 144.774C119.277 147.591 113.77 146.9 113.77 146.9L119.277 146.973V142.503L113.77 142.866Z" fill="#18728E"/>
<path d="M158.858 122.449C158.858 122.449 157.789 151.398 162.771 157.077C167.753 162.756 195.776 167.981 195.776 167.981C195.776 167.981 165.977 166.827 159.673 157.795C153.369 148.763 158.858 122.449 158.858 122.449Z" fill="#00BBF2"/>
<path d="M223.157 143.666C223.157 143.666 220.05 124.257 218.094 113.162C216.137 102.068 208.321 77.0802 205.287 69.0569C202.252 61.0336 185.478 35.4371 185.478 35.4371L170.814 40.4074C170.814 40.4074 184.771 65.2043 189.3 79.9606C193.829 94.717 196.238 117.506 196.238 117.506L223.157 143.666Z" fill="#38C6F4"/>
<path d="M239.207 173.551C223.293 173.551 203.194 162.111 203.194 148C203.194 133.889 223.293 122.458 239.207 122.458C255.12 122.458 268.009 133.898 268.009 148C268.009 162.102 255.111 173.551 239.207 173.551Z" fill="#FDC88C"/>
<path d="M242.739 172.379C237.685 165.882 252.702 160.476 252.132 147.991C251.561 135.506 243.418 131.226 243.346 123.794C243.273 116.361 256.026 113.162 256.026 113.162C256.026 113.162 251.959 120.704 257.747 125.066C263.535 129.427 273.951 144.511 267.294 157.868C260.636 171.225 249.079 180.502 242.739 172.379Z" fill="#B5B6B6"/>
<path d="M14.6549 185.554H285.309C286.193 185.554 287.068 185.379 287.884 185.04C288.701 184.701 289.443 184.204 290.068 183.577C290.692 182.95 291.188 182.206 291.526 181.386C291.865 180.567 292.039 179.689 292.039 178.803C292.04 177.916 291.867 177.037 291.529 176.217C291.191 175.396 290.696 174.651 290.071 174.023C289.446 173.395 288.703 172.897 287.886 172.557C287.069 172.218 286.193 172.043 285.309 172.043H14.6549C12.8693 172.045 11.1576 172.758 9.89579 174.026C8.63399 175.293 7.92526 177.012 7.92526 178.803C7.92526 179.689 8.09933 180.567 8.43753 181.386C8.77572 182.206 9.27143 182.95 9.89634 183.577C10.5212 184.204 11.2631 184.701 12.0796 185.04C12.8961 185.379 13.7712 185.554 14.6549 185.554Z" fill="#758B96"/>
<path d="M44.4085 192.305H30.5235V260.599H44.4085V192.305Z" fill="#758B96"/>
<path d="M46.057 242.172H28.8841V262.653H46.057V242.172Z" fill="#5E707A"/>
<path d="M273.199 192.305H259.314V260.599H273.199V192.305Z" fill="#758B96"/>
<path d="M274.848 242.172H257.675V262.653H274.848V242.172Z" fill="#5E707A"/>
<path d="M214.018 43.8057C214.018 44.3448 213.858 44.8719 213.56 45.3202C213.261 45.7684 212.837 46.1178 212.34 46.3241C211.844 46.5305 211.298 46.5844 210.771 46.4793C210.243 46.3741 209.759 46.1145 209.379 45.7332C208.999 45.352 208.74 44.8663 208.636 44.3375C208.531 43.8087 208.585 43.2606 208.79 42.7625C208.996 42.2644 209.344 41.8387 209.791 41.5392C210.238 41.2396 210.763 41.0798 211.301 41.0798C212.021 41.0798 212.712 41.367 213.222 41.8782C213.732 42.3894 214.018 43.0827 214.018 43.8057Z" fill="#6E3C12"/>
<path d="M210.893 42.7063C210.893 42.8644 210.846 43.019 210.759 43.1505C210.671 43.282 210.547 43.3845 210.401 43.445C210.255 43.5055 210.095 43.5213 209.941 43.4905C209.786 43.4596 209.644 43.3835 209.532 43.2717C209.421 43.1598 209.345 43.0174 209.314 42.8622C209.284 42.7071 209.299 42.5464 209.36 42.4003C209.42 42.2541 209.522 42.1293 209.653 42.0414C209.784 41.9535 209.938 41.9066 210.096 41.9066C210.307 41.9066 210.51 41.9909 210.66 42.1408C210.809 42.2908 210.893 42.4942 210.893 42.7063Z" fill="white"/>
<path d="M211.038 38.6083C206.654 38.6083 206.844 39.6169 205.685 39.2534C204.526 38.8899 206.038 36.3457 211.038 36.3457C216.038 36.3457 216.472 37.8177 216.237 38.6446C216.001 39.4715 212.532 38.6083 211.038 38.6083Z" fill="#6E3C12"/>
<path d="M231.952 38.6083C236.326 38.6083 236.136 39.6169 237.295 39.2534C238.455 38.8899 236.906 36.3094 231.952 36.3094C226.997 36.3094 226.517 37.7814 226.744 38.6083C226.97 39.4351 230.421 38.6083 231.952 38.6083Z" fill="#6E3C12"/>
<path d="M234.904 43.8057C234.904 44.3448 234.745 44.8719 234.446 45.3202C234.148 45.7684 233.723 46.1178 233.227 46.3241C232.73 46.5305 232.184 46.5844 231.657 46.4793C231.13 46.3741 230.646 46.1145 230.266 45.7332C229.886 45.352 229.627 44.8663 229.522 44.3375C229.417 43.8087 229.471 43.2606 229.677 42.7625C229.882 42.2644 230.231 41.8387 230.677 41.5392C231.124 41.2396 231.65 41.0798 232.187 41.0798C232.908 41.0798 233.599 41.367 234.108 41.8782C234.618 42.3894 234.904 43.0827 234.904 43.8057Z" fill="#6E3C12"/>
<path d="M231.779 42.7062C231.781 42.8669 231.735 43.0245 231.647 43.1589C231.56 43.2933 231.434 43.3983 231.286 43.4607C231.138 43.523 230.976 43.5398 230.818 43.5089C230.661 43.478 230.517 43.4008 230.403 43.2871C230.29 43.1735 230.213 43.0285 230.182 42.8708C230.152 42.7131 230.168 42.5498 230.23 42.4016C230.293 42.2535 230.397 42.1273 230.531 42.0391C230.665 41.951 230.822 41.9048 230.982 41.9066C231.193 41.909 231.394 41.994 231.543 42.1434C231.692 42.2929 231.777 42.4949 231.779 42.7062Z" fill="white"/>
<path d="M221.961 46.5407C220.277 46.5407 218.719 53.4646 219.244 54.0007C219.769 54.5368 223.863 54.664 224.579 54.0007C225.294 53.3374 223.718 46.5407 221.961 46.5407Z" fill="#FCBB77"/>
<path d="M228.618 135.243C228.07 135.244 227.533 135.083 227.076 134.778C226.619 134.474 226.263 134.04 226.051 133.532C225.84 133.025 225.784 132.465 225.89 131.925C225.996 131.385 226.259 130.889 226.646 130.499C227.034 130.109 227.527 129.844 228.065 129.736C228.603 129.628 229.161 129.682 229.668 129.892C230.175 130.103 230.608 130.459 230.913 130.916C231.218 131.374 231.381 131.912 231.381 132.462C231.381 133.198 231.09 133.904 230.572 134.425C230.055 134.946 229.352 135.24 228.618 135.243Z" fill="#6E3C12"/>
<path d="M229.696 132.062C229.535 132.064 229.376 132.018 229.241 131.929C229.106 131.84 229 131.713 228.937 131.564C228.874 131.415 228.856 131.25 228.887 131.091C228.917 130.931 228.994 130.785 229.108 130.67C229.221 130.554 229.366 130.475 229.525 130.443C229.683 130.411 229.848 130.427 229.997 130.488C230.147 130.55 230.274 130.655 230.364 130.789C230.454 130.924 230.502 131.082 230.502 131.244C230.502 131.46 230.418 131.666 230.267 131.82C230.116 131.973 229.911 132.06 229.696 132.062Z" fill="white"/>
<path d="M233.881 132.099C233.881 128.855 232.857 129 233.229 128.137C233.6 127.274 236.209 128.428 236.209 132.099C236.209 135.77 234.714 136.142 233.881 135.96C233.048 135.779 233.881 133.234 233.881 132.099Z" fill="#B5B6B6"/>
<path d="M233.881 153.561C233.881 156.805 232.857 156.668 233.229 157.522C233.6 158.377 236.209 157.232 236.209 153.561C236.209 149.89 234.714 149.526 233.881 149.708C233.048 149.89 233.881 152.452 233.881 153.561Z" fill="#B5B6B6"/>
<path d="M228.618 156.532C228.07 156.534 227.533 156.372 227.076 156.068C226.619 155.763 226.263 155.33 226.051 154.822C225.84 154.314 225.784 153.755 225.89 153.215C225.996 152.675 226.259 152.178 226.646 151.789C227.034 151.399 227.527 151.133 228.065 151.025C228.603 150.917 229.161 150.972 229.668 151.182C230.175 151.392 230.608 151.748 230.913 152.206C231.218 152.663 231.381 153.201 231.381 153.752C231.381 154.487 231.09 155.193 230.572 155.714C230.055 156.236 229.352 156.53 228.618 156.532Z" fill="#6E3C12"/>
<path d="M229.696 153.343C229.534 153.344 229.375 153.298 229.24 153.209C229.105 153.119 228.999 152.992 228.936 152.842C228.873 152.692 228.856 152.527 228.887 152.368C228.918 152.208 228.996 152.062 229.111 151.947C229.225 151.832 229.371 151.754 229.53 151.722C229.689 151.691 229.854 151.708 230.003 151.771C230.153 151.834 230.28 151.94 230.369 152.076C230.458 152.212 230.504 152.371 230.502 152.534C230.502 152.748 230.417 152.954 230.266 153.106C230.115 153.257 229.91 153.343 229.696 153.343Z" fill="white"/>
<path d="M225.847 143.338C225.847 141.621 218.836 140.04 218.293 140.613C217.75 141.185 217.623 145.319 218.293 146.064C218.963 146.81 225.847 145.174 225.847 143.338Z" fill="#F9A771"/>
</svg>
