<svg xmlns="http://www.w3.org/2000/svg" xmlns:xlink="http://www.w3.org/1999/xlink" viewBox="0 0 3710 3710"><defs><style>.cls-1{fill:none;}.cls-2{isolation:isolate;}.cls-14,.cls-3{fill:#fff;}.cls-4{fill:#f4f7fa;}.cls-5{clip-path:url(#clip-path);}.cls-6{clip-path:url(#clip-path-2);}.cls-7{fill:url(#linear-gradient);}.cls-8{fill:#beb8f2;}.cls-11,.cls-8{mix-blend-mode:soft-light;}.cls-9{fill:url(#linear-gradient-2);}.cls-10{clip-path:url(#clip-path-3);}.cls-11{fill:#fcfdfe;}.cls-12{fill:url(#linear-gradient-3);}.cls-13{fill:#d8dee8;}.cls-14{opacity:0.74;}.cls-15{fill:url(#linear-gradient-4);}.cls-16,.cls-17,.cls-19,.cls-20,.cls-22,.cls-23{opacity:0.31;}.cls-16{fill:url(#linear-gradient-5);}.cls-17{fill:url(#linear-gradient-6);}.cls-18{fill:url(#linear-gradient-7);}.cls-19{fill:url(#linear-gradient-8);}.cls-20{fill:url(#linear-gradient-9);}.cls-21{fill:url(#linear-gradient-10);}.cls-22{fill:url(#linear-gradient-11);}.cls-23{fill:url(#linear-gradient-12);}.cls-24{fill:url(#linear-gradient-13);}.cls-25{fill:url(#linear-gradient-14);}.cls-26,.cls-34{opacity:0.15;}.cls-26,.cls-34,.cls-35,.cls-36,.cls-44,.cls-52,.cls-60,.cls-70,.cls-71,.cls-72{mix-blend-mode:multiply;}.cls-26{fill:url(#linear-gradient-15);}.cls-27{fill:url(#linear-gradient-16);}.cls-28{fill:url(#linear-gradient-17);}.cls-29{fill:url(#linear-gradient-18);}.cls-30{fill:url(#linear-gradient-19);}.cls-31{fill:url(#linear-gradient-20);}.cls-32{fill:url(#linear-gradient-21);}.cls-33{fill:url(#linear-gradient-22);}.cls-34{fill:url(#linear-gradient-23);}.cls-35{opacity:0.64;}.cls-36,.cls-44,.cls-52,.cls-70{opacity:0.3;}.cls-36{fill:url(#linear-gradient-24);}.cls-37{fill:url(#linear-gradient-25);}.cls-38{fill:url(#linear-gradient-26);}.cls-39{fill:url(#linear-gradient-27);}.cls-40{fill:url(#linear-gradient-28);}.cls-41{fill:url(#linear-gradient-29);}.cls-42{fill:url(#linear-gradient-30);}.cls-43{fill:url(#linear-gradient-31);}.cls-44{fill:url(#linear-gradient-32);}.cls-45{fill:#c0c6ce;}.cls-46{fill:url(#linear-gradient-33);}.cls-47{fill:url(#linear-gradient-34);}.cls-48{fill:url(#linear-gradient-35);}.cls-49{fill:url(#linear-gradient-36);}.cls-50{fill:url(#linear-gradient-37);}.cls-51{fill:url(#linear-gradient-38);}.cls-52{fill:url(#linear-gradient-39);}.cls-53{fill:url(#linear-gradient-40);}.cls-54{fill:url(#linear-gradient-41);}.cls-55{fill:url(#linear-gradient-42);}.cls-56{fill:url(#linear-gradient-43);}.cls-57{fill:url(#linear-gradient-44);}.cls-58{fill:url(#linear-gradient-45);}.cls-59{fill:url(#linear-gradient-46);}.cls-60{opacity:0.2;fill:url(#linear-gradient-47);}.cls-61{fill:url(#linear-gradient-48);}.cls-62{fill:url(#linear-gradient-49);}.cls-63{fill:url(#linear-gradient-50);}.cls-64{fill:url(#linear-gradient-51);}.cls-65{fill:url(#linear-gradient-52);}.cls-66{fill:url(#linear-gradient-53);}.cls-67{fill:url(#linear-gradient-54);}.cls-68{fill:url(#linear-gradient-55);}.cls-69{fill:url(#linear-gradient-56);}.cls-70{fill:url(#linear-gradient-57);}.cls-71,.cls-72{opacity:0.4;}.cls-71{fill:url(#linear-gradient-58);}.cls-72{fill:url(#linear-gradient-59);}</style><clipPath id="clip-path"><rect class="cls-1" x="1943.41" y="462.43" width="1218.72" height="1739.42"/></clipPath><clipPath id="clip-path-2"><path class="cls-1" d="M2063.87,2641.84c236.5-269.7,64.17-474.36,4.19-576-90.46-153.28-109.43-349.89,93.26-390.18s116.71-448.48-61.8-663.17c-174.67-210.08,79.18-789.8,496.9-386.35,249.45,240.94,95.34,641.74,53.28,859.52S2847,1773.61,2694.64,2018c-130.09,208.73-295.12,460.64-232.11,636.88S1948,2774,2063.87,2641.84Z"/></clipPath><linearGradient id="linear-gradient" x1="412.65" y1="624.63" x2="-286.62" y2="2458.78" gradientTransform="matrix(-0.96, -0.26, -0.26, 0.96, 2838.5, 375.67)" gradientUnits="userSpaceOnUse"><stop offset="0" stop-color="#fcb148"/><stop offset="0.05" stop-color="#fdba46"/><stop offset="0.14" stop-color="#ffc244"/><stop offset="0.32" stop-color="#ffc444"/><stop offset="0.48" stop-color="#fdb946"/><stop offset="0.78" stop-color="#f99c4d"/><stop offset="0.87" stop-color="#f8924f"/><stop offset="1" stop-color="#f8924f"/></linearGradient><linearGradient id="linear-gradient-2" x1="2164.9" y1="1601.2" x2="3141.93" y2="1601.2" gradientUnits="userSpaceOnUse"><stop offset="0" stop-color="#ff9085"/><stop offset="1" stop-color="#fb6fbb"/></linearGradient><clipPath id="clip-path-3"><path class="cls-1" d="M2131.6,2414.17c-53.8-353.63,314.59-364.82,280-826.29-9.19-122.74-65.68-352.2,25.1-461.66,103.42-124.7,193.37-25.19,258.24-126.9,101.39-159,279.86-232.91,400-96.09,118.54,135,10.44,444.89-295.82,720.07-199.36,223-198.23,282.52-170.44,424.46,19.46,99.42,130.65,351.2,8.72,471.57S2151.43,2544.51,2131.6,2414.17Z"/></clipPath><linearGradient id="linear-gradient-3" x1="535.41" y1="1519.83" x2="2768.5" y2="1519.83" gradientUnits="userSpaceOnUse"><stop offset="0" stop-color="#444b8c"/><stop offset="1" stop-color="#26264f"/></linearGradient><linearGradient id="linear-gradient-4" x1="2171.63" y1="875.8" x2="974.33" y2="2454.06" gradientTransform="matrix(0.95, 0.01, -0.01, 1, 39.67, 1.06)" gradientUnits="userSpaceOnUse"><stop offset="0" stop-color="#aa80f9"/><stop offset="1" stop-color="#6165d7"/></linearGradient><linearGradient id="linear-gradient-5" x1="2689.04" y1="356.85" x2="965.51" y2="2816.94" gradientTransform="matrix(0.95, 0.01, -0.01, 1, 39.67, 1.06)" xlink:href="#linear-gradient-2"/><linearGradient id="linear-gradient-6" x1="2280.79" y1="941.16" x2="1316.95" y2="2316.9" gradientTransform="matrix(0.95, 0.01, -0.01, 1, 39.67, 1.06)" xlink:href="#linear-gradient-2"/><linearGradient id="linear-gradient-7" x1="1922.37" y1="1453.4" x2="1624.51" y2="1878.55" gradientTransform="matrix(0.95, 0.01, -0.01, 1, 39.67, 1.06)" xlink:href="#linear-gradient-2"/><linearGradient id="linear-gradient-8" x1="2238.35" y1="-109.54" x2="472.75" y2="2410.59" gradientTransform="matrix(0.95, 0.01, -0.01, 1, 39.67, 1.06)" xlink:href="#linear-gradient-2"/><linearGradient id="linear-gradient-9" x1="1820.2" y1="489.06" x2="832.83" y2="1898.37" gradientTransform="matrix(0.95, 0.01, -0.01, 1, 39.67, 1.06)" xlink:href="#linear-gradient-2"/><linearGradient id="linear-gradient-10" x1="1453.06" y1="1013.81" x2="1147.93" y2="1449.34" gradientTransform="matrix(0.95, 0.01, -0.01, 1, 39.67, 1.06)" xlink:href="#linear-gradient-2"/><linearGradient id="linear-gradient-11" x1="2250.16" y1="371.59" x2="1123.24" y2="1980.12" gradientTransform="matrix(0.95, 0.01, -0.01, 1, 39.67, 1.06)" xlink:href="#linear-gradient-2"/><linearGradient id="linear-gradient-12" x1="1983.23" y1="753.64" x2="1353.02" y2="1653.17" gradientTransform="matrix(0.95, 0.01, -0.01, 1, 39.67, 1.06)" xlink:href="#linear-gradient-2"/><linearGradient id="linear-gradient-13" x1="1748.88" y1="1088.57" x2="1554.12" y2="1366.56" gradientTransform="matrix(0.95, 0.01, -0.01, 1, 39.67, 1.06)" xlink:href="#linear-gradient-2"/><linearGradient id="linear-gradient-14" x1="-3072.28" y1="1407.83" x2="-3006.86" y2="1807.91" gradientTransform="matrix(-0.98, -0.19, -0.19, 0.98, -1330.19, 236.7)" gradientUnits="userSpaceOnUse"><stop offset="0" stop-color="#ffc444"/><stop offset="1" stop-color="#f36f56"/></linearGradient><linearGradient id="linear-gradient-15" x1="-2585.41" y1="2247.2" x2="-2246.92" y2="2247.2" gradientTransform="matrix(-1, 0, 0, 1, -1206, 0)" xlink:href="#linear-gradient-4"/><linearGradient id="linear-gradient-16" x1="1353.59" y1="3185.22" x2="1424.87" y2="3185.22" gradientTransform="matrix(-1, 0.03, 0.03, 1, 2205.68, -31.24)" xlink:href="#linear-gradient-3"/><linearGradient id="linear-gradient-17" x1="1769.79" y1="3162.44" x2="1801.06" y2="3097.71" gradientTransform="matrix(-0.99, 0.12, 0.12, 0.99, 2272.94, -162.68)" xlink:href="#linear-gradient-14"/><linearGradient id="linear-gradient-18" x1="1878.2" y1="3083.37" x2="1953.94" y2="3083.37" gradientTransform="matrix(-0.96, 0.27, 0.27, 0.96, 2192.85, -308.92)" xlink:href="#linear-gradient-3"/><linearGradient id="linear-gradient-19" x1="1702.32" y1="3125.83" x2="1734.26" y2="3059.73" gradientTransform="matrix(-0.98, 0.2, 0.2, 0.98, 2204.06, -227.18)" xlink:href="#linear-gradient-14"/><linearGradient id="linear-gradient-20" x1="1174.41" y1="3038.7" x2="972.41" y2="2583.34" gradientTransform="matrix(1, 0, 0, 1, 0, 0)" xlink:href="#linear-gradient-4"/><linearGradient id="linear-gradient-21" x1="598.79" y1="3058.67" x2="396.79" y2="2603.31" gradientTransform="matrix(0.99, -0.12, 0.12, 0.99, 83.01, 108.12)" xlink:href="#linear-gradient-4"/><linearGradient id="linear-gradient-22" x1="788.45" y1="2289.17" x2="1085.52" y2="2289.17" gradientTransform="matrix(1, 0, 0, 1, 0, 0)" xlink:href="#linear-gradient-4"/><linearGradient id="linear-gradient-23" x1="781.81" y1="1818.91" x2="1110.22" y2="2561.85" gradientTransform="matrix(1, 0, 0, 1, 0, 0)" xlink:href="#linear-gradient-4"/><linearGradient id="linear-gradient-24" x1="729.89" y1="2381.35" x2="927.68" y2="2381.35" gradientTransform="matrix(1, 0, 0, 1, 0, 0)" xlink:href="#linear-gradient-4"/><linearGradient id="linear-gradient-25" x1="1352.68" y1="1908.72" x2="1360.63" y2="1696.94" gradientTransform="translate(399.6 -184.89) rotate(23.5)" xlink:href="#linear-gradient-14"/><linearGradient id="linear-gradient-26" x1="1159.58" y1="1880.19" x2="1105.68" y2="1743.27" gradientTransform="matrix(-1, 0, 0, 1, 2039.02, 162.92)" gradientUnits="userSpaceOnUse"><stop offset="0" stop-color="#311944"/><stop offset="1" stop-color="#6b3976"/></linearGradient><linearGradient id="linear-gradient-27" x1="288.33" y1="1751.24" x2="285.85" y2="1950.98" gradientTransform="translate(531.93 219.59) rotate(-3.72)" xlink:href="#linear-gradient-14"/><linearGradient id="linear-gradient-28" x1="1143.12" y1="1886.75" x2="1089.15" y2="1749.69" xlink:href="#linear-gradient-26"/><linearGradient id="linear-gradient-29" x1="1090.3" y1="1804.16" x2="1093.11" y2="1829.18" gradientTransform="matrix(-1, 0, 0, 1, 2039.02, 162.92)" gradientUnits="userSpaceOnUse"><stop offset="0" stop-color="#ffc444"/><stop offset="1" stop-color="#f36f56"/></linearGradient><linearGradient id="linear-gradient-30" x1="-2195.04" y1="2610.29" x2="-2173.8" y2="2423.8" gradientTransform="matrix(-1, 0, 0, 1, -1206, 0)" xlink:href="#linear-gradient-2"/><linearGradient id="linear-gradient-31" x1="-2065.55" y1="2202.31" x2="-1990.42" y2="2661.76" gradientTransform="matrix(-1, 0, 0, 1, -1206, 0)" xlink:href="#linear-gradient-14"/><linearGradient id="linear-gradient-32" x1="-2235.33" y1="2605.7" x2="-2214.08" y2="2419.21" gradientTransform="matrix(-1, 0, 0, 1, -1206, 0)" xlink:href="#linear-gradient-2"/><linearGradient id="linear-gradient-33" x1="1813.56" y1="3054.67" x2="1864.05" y2="3054.67" xlink:href="#linear-gradient-3"/><linearGradient id="linear-gradient-34" x1="1952.02" y1="3111.02" x2="2023.57" y2="3111.02" xlink:href="#linear-gradient-3"/><linearGradient id="linear-gradient-35" x1="1893.49" y1="2547.86" x2="1793.48" y2="2833.77" gradientTransform="matrix(1, 0, 0, 1, 0, 0)" xlink:href="#linear-gradient-26"/><linearGradient id="linear-gradient-36" x1="2144.53" y1="2714.18" x2="1943.24" y2="2744.95" gradientTransform="matrix(1, 0, 0, 1, 0, 0)" xlink:href="#linear-gradient-26"/><linearGradient id="linear-gradient-37" x1="1631.19" y1="2190.69" x2="1727.85" y2="2462.28" xlink:href="#linear-gradient-2"/><linearGradient id="linear-gradient-38" x1="1823.24" y1="2122.34" x2="1919.9" y2="2393.92" xlink:href="#linear-gradient-2"/><linearGradient id="linear-gradient-39" x1="1734.26" y1="2151.83" x2="1831.29" y2="2424.43" xlink:href="#linear-gradient-2"/><linearGradient id="linear-gradient-40" x1="1768.73" y1="2257.9" x2="2103.57" y2="2355.45" xlink:href="#linear-gradient-2"/><linearGradient id="linear-gradient-41" x1="-690.8" y1="1813.29" x2="-688.37" y2="1835.03" gradientTransform="matrix(0.98, -0.18, 0.18, 0.98, 2123.47, 142.06)" xlink:href="#linear-gradient-29"/><linearGradient id="linear-gradient-42" x1="2174.74" y1="234.29" x2="2184.08" y2="-14.59" gradientTransform="matrix(-0.88, 0.47, 0.47, 0.88, 3677.35, 912.01)" xlink:href="#linear-gradient-14"/><linearGradient id="linear-gradient-43" x1="44.67" y1="701.08" x2="-14.99" y2="549.58" gradientTransform="translate(1622.99 1402.52) rotate(-13.88)" xlink:href="#linear-gradient-26"/><linearGradient id="linear-gradient-44" x1="1478.61" y1="633.04" x2="1475.94" y2="848.04" gradientTransform="matrix(-0.98, 0.18, 0.18, 0.98, 3098.78, 1089.77)" xlink:href="#linear-gradient-14"/><linearGradient id="linear-gradient-45" x1="1472.83" y1="2315.61" x2="1406.36" y2="2484.37" gradientTransform="matrix(1, 0, 0, 1, 0, 0)" xlink:href="#linear-gradient-14"/><linearGradient id="linear-gradient-46" x1="1653.09" y1="2371.7" x2="1528.81" y2="2687.18" gradientTransform="matrix(1, 0, 0, 1, 0, 0)" xlink:href="#linear-gradient-14"/><linearGradient id="linear-gradient-47" x1="2454.83" y1="880.1" x2="2413.96" y2="1809.72" gradientTransform="matrix(1, 0, 0, 1, 0, 0)" xlink:href="#linear-gradient-4"/><linearGradient id="linear-gradient-48" x1="2534.09" y1="1546.24" x2="2189.79" y2="3580.75" gradientTransform="matrix(1, 0, 0, 1, 0, 0)" xlink:href="#linear-gradient-4"/><linearGradient id="linear-gradient-49" x1="3016.52" y1="1602.51" x2="2979.36" y2="2463" gradientTransform="matrix(0.97, 0.24, -0.24, 0.97, 181.45, -480.26)" xlink:href="#linear-gradient-3"/><linearGradient id="linear-gradient-50" x1="2835.23" y1="888.15" x2="2922.25" y2="888.15" gradientTransform="matrix(0.97, 0.24, -0.24, 0.97, 181.45, -480.26)" xlink:href="#linear-gradient-3"/><linearGradient id="linear-gradient-51" x1="-4532.07" y1="888.5" x2="-4445.05" y2="888.5" gradientTransform="matrix(-0.97, -0.24, -0.24, 0.97, -1118.59, -800.88)" xlink:href="#linear-gradient-3"/><linearGradient id="linear-gradient-52" x1="3019.68" y1="1235.59" x2="2948.2" y2="2890.8" gradientTransform="matrix(0.97, 0.24, -0.24, 0.97, 181.45, -480.26)" xlink:href="#linear-gradient-3"/><linearGradient id="linear-gradient-53" x1="2107.06" y1="1663.27" x2="2105.12" y2="1707.26" xlink:href="#linear-gradient-3"/><linearGradient id="linear-gradient-54" x1="2144.67" y1="1328.61" x2="2135.35" y2="1540.59" xlink:href="#linear-gradient-3"/><linearGradient id="linear-gradient-55" x1="2132.04" y1="1438.8" x2="2225.36" y2="1830.54" xlink:href="#linear-gradient-3"/><linearGradient id="linear-gradient-56" x1="2117.17" y1="855.37" x2="2221.95" y2="2806.33" gradientTransform="translate(1711.17 -1075.06) rotate(45)" xlink:href="#linear-gradient-4"/><linearGradient id="linear-gradient-57" x1="2115.51" y1="1336.64" x2="2106.43" y2="1543.25" gradientTransform="matrix(1, 0, 0, 1, 0, 0)" xlink:href="#linear-gradient-4"/><linearGradient id="linear-gradient-58" x1="2648.13" y1="2175.42" x2="2646.51" y2="2212.31" gradientTransform="matrix(1, 0, 0, 1, 0, 0)" xlink:href="#linear-gradient-4"/><linearGradient id="linear-gradient-59" x1="2554" y1="2163.09" x2="2552.68" y2="2193.1" gradientTransform="matrix(1, 0, 0, 1, 0, 0)" xlink:href="#linear-gradient-4"/></defs><g class="cls-2"><g id="Camada_2" data-name="Camada 2"><g id="Background"><rect class="cls-3" width="3710" height="3710"/></g><g id="Illustration"><path class="cls-4" d="M2361.42,514.72c-211.6-47.21-431.6-69.83-646.7-55.41C1524.07,472.09,1308,507,1154.54,632c-73.11,59.55-160.31,166.57-184.22,261,0,0-125.89,497-377.65,603.44S166.07,3420.29,2075.29,3242.81c0,0,1121.37-46.51,1188.89-1386.11,16.31-323.61,7.2-679.36-188.2-949.95-149.73-207.36-359.52-299.55-600.6-364.07Q2418.89,527.58,2361.42,514.72Z"/><g class="cls-5"><g class="cls-6"><path class="cls-7" d="M2099.52,1012.51c178.51,214.68,242.95,566.38,43.13,650.39-176.61,74.25-165.05,249.67-74.59,402.95,45,76.28,153.32,210.6,104.56,386.9,11.44,1.34-179.6,254.62-169.27,260.62,46.07,26.79,156.38,11.46,140.84,77.15l328.29-40.18c11.65-71,2.16-141.93-23.29-213.12-63-176.24,115.36-310.51,245.45-519.24,152.31-244.37-87-314.53-44.94-532.31s196.17-618.58-53.29-859.52C2178.7,222.7,1924.84,802.41,2099.52,1012.51Z"/><path class="cls-8" d="M2418.83,1054.43C2243.17,840.54,2020,881.66,2017.73,882.12l-.07,8.67c2.3-.45,231.53-42.56,406.55,183.81,72.75,283.37,49,622.23-.77,913.83-19.46,114-43.64,225.92-69.84,332,9.76-404.29-371.6-589.94-375.65-590.81l-2.47,8.61c4.07,1.43,402,192.65,369.47,616.72-25,98.64-51.64,191.76-77.53,276.16l6,3.48c26.18-85.28,53.09-179.47,78.43-279.3h0v-.06c14.2-55.92,27.89-113.6,40.69-172.49,109.12-249.77,370.92-382.15,373.56-383.46l-1.58-8.1c-2.57,1.27-248.87,125.79-365.65,361.91,11.36-53.93,21.92-108.76,31.37-164.09,47.05-275.57,59.37-518.14,36.93-723.3l.65.26c103-282.2,126.43-708.67,126.66-712.94l-7,.9c-.22,4.2-23,417.56-121.86,698.07q-6.57-55.74-16.6-107.7c-55.37-286-190.49-484.93-401.6-591.25l-3.5,8.24C2245.49,662.81,2360.27,842,2418.83,1054.43Zm60,1546.94c-25.42,15.21-73.15,43.8-123.2,81l7.11,4.13c48.11-35.37,93.66-62.65,118.19-77.33,11.64-7,16.43-9.85,18.12-11.38l-3.44-6.83C2494.36,2592.05,2487.15,2596.36,2478.79,2601.37Z"/></g><path class="cls-9" d="M2176.93,2163.5c21.6-9.73-29.06,43-5.74,49.39,47.93,13.13,11.92,50.47,152.46,56.64l369.77,101.32c3.46-118.86-51.61-255.83-64.77-323.09-27.79-141.94-28.92-201.45,170.44-424.46,306.26-275.18,414.36-585,295.82-720.07-120.1-136.83-298.57-62.86-400,96.09-64.87,101.71-154.82,2.2-258.24,126.9-90.78,109.46-34.29,338.92-25.1,461.66C2435.63,1908.46,2265.21,2011.76,2176.93,2163.5Z"/><g class="cls-10"><path class="cls-11" d="M2534,1813.8a3863.64,3863.64,0,0,0-126,396.63q-9.93,38.18-19.13,76.94l6.27,1.72q9.28-38.74,19.16-77c59.26-227.79,136.92-444.49,230.81-644.08q31.62-67.21,65.76-131.94c94.61-117.53,392.34-149.46,395.34-149.77l-.42-6.87c-11.71,1.2-273.2,29.28-382.82,133.87,55.31-103,115.13-200.78,178.79-292.11,66.63-95.59,136.7-183.16,208.28-260.28,12.39-13.35,25.81-26.36,38.78-38.94,17.5-17,35.59-34.5,51.6-53.28l-4.78-4.53c-15.8,18.52-33.77,35.94-51.15,52.79-13,12.65-26.52,25.72-39,39.21-71.8,77.36-142.09,165.2-208.9,261.05q-17.7,25.38-35,51.43a.61.61,0,0,1-1.09-.55c54.46-144.82,83.57-299.54,93.63-353,1.9-10.09,3.4-18.06,3.84-19.33l-6.08-2.3c-.61,1.66-1.54,6.56-4.17,20.49-10.82,57.57-43.78,232.75-106.69,385.93l.1,0c-47.75,74-93,151.6-135.58,232.3l-.12.15,0,0q-34.3,65.1-66.17,132.73-43.24,91.92-81.82,188.52c62.53-286.11-60.52-703.45-61.87-707.95l-6.23,2.28c1.44,4.82,143,485,44.54,765.82ZM2700.21,2235c-1.48.83-67.67,38.77-144.6,98.08l8,2.18c74.64-57,138.13-93.38,139.57-94.2Z"/></g></g><path class="cls-12" d="M2741.47,842.12,606.76,728c-19.8-1-57,20.61-57.15,38.85l-14.2,1502.37c0,30.54,54.08,43.23,73.9,42.39L2728.53,2210c15.11-.63,27.45-14,27.6-29.9L2768.5,872.22C2768.65,856.34,2756.56,842.87,2741.47,842.12Z"/><path class="cls-13" d="M2809.91,832.73l-2185.6-108c-20.07-1-36.52,13.19-36.7,31.69l-14.4,1523.24c-.18,18.49,16,32.8,36.1,32l2187.49-92c15.31-.65,27.83-14.22,28-30.32l12.54-1326.06C2837.47,847.15,2825.21,833.49,2809.91,832.73Z"/><path class="cls-14" d="M2760.06,2127.51,714.92,2200.94c-9.56.34-17.26-6.56-17.17-15.41l12.74-1348c.09-8.85,7.91-15.68,17.47-15.26l2043.6,90c7.41.33,13.36,6.9,13.29,14.69l-11.22,1185.94C2773.56,2120.72,2767.49,2127.25,2760.06,2127.51Z"/><path class="cls-15" d="M1878,2061.47h0a12,12,0,0,0-10.91-6.57c-26.08.17-112.32-3.05-129.06-52-18.4-53.86-40.11-253.32-43.15-281.88a14.53,14.53,0,0,0-2.23-6.35c-13.78-21.41-101.65-154.56-184.82-200.81,0,0-.52-61.5,16.38-100.37s29.7-62.09,29.35-82.9c0,0,23.25,26.6,43,36.33a11.33,11.33,0,0,0,12.39-1.69c15.33-13.33,58.9-57.32,75.15-138.47,0,0,21.72-15.91,21.85-30.18s-30.3-47.84-44.86-51.93-26.3,28-26.3,28l13.76,37.46s-19.94,41-45.19,63.85c0,0-5-46.37-30-66.62,0,0-7.75-49.75-39.88-76.76,0,0-15.71-26.09,31-30.07l1.55-47.93,15.39-7-21.65-26.31-3-27.84s-51-77.82-121.24-34.46c-70.85,43.74,6.86,98,6.86,98s7.94,42.12-10.63,65.23-22.33,2.6-58.34,24.26c-33,19.85-120.31,66.57-160.89,113a22.08,22.08,0,0,0-1.87,26.58c22.15,34.78,82.43,126.26,112.87,141.43,24,12,11.93,41.75.09,61.7a71.35,71.35,0,0,0-9.64,44.23c2.22,20.37,3.33,48-4.45,61.7-13.23,23.3-45,84.67-45,84.67l-19.1,55.75c-3.7,10.81-15.66,17-27.08,14.12l-65.2-16.8L974,1746.8l-28.59-28.91c-9.48-9.58-25.47-10.37-36.31-1.76l-42.77,33.94-68.4,30.79s-30.85,21.58-36.53,48.48S778,1852,781.62,1850.26,847.29,1807,923.89,1806c67.66-.9,298.18,29.81,346.9,36.42a22.94,22.94,0,0,0,16.94-4.47c28.13-21.44,124.52-100,152.4-189l56.06,39.53a471.3,471.3,0,0,0,115.74,59.6h0l-.66,69.35a155.53,155.53,0,0,0,17.8,74.32c17.39,32.83,36.68,82.76,44.47,106.5,11,33.56,4.6,65.81,5.11,90.35.25,12.33,10.49,21.84,23.06,21.68,43.9-.56,138.47-5.12,172.75-33.33A12.71,12.71,0,0,0,1878,2061.47Zm-513.76-658.26c-21.2-15.89-68.81-113.41-68.81-113.41l70.19-32.22C1372.76,1334.83,1364.26,1403.21,1364.26,1403.21Z"/><path class="cls-16" d="M1849.78,1698.29c-.79,84.11-70.6,153.45-156.73,154.89-87,1.45-157.66-66.87-156.84-152.62s72.71-155.1,159.75-154.91C1782.08,1545.84,1850.58,1614.18,1849.78,1698.29Z"/><path class="cls-17" d="M1781.71,1698.79c-.45,47.23-39.74,86-88,86.62-48.57.61-87.79-37.6-87.34-85.35s40.4-86.54,89-86.64C1743.59,1613.33,1782.16,1651.55,1781.71,1698.79Z"/><path class="cls-18" d="M1721.56,1699.22c-.14,14.65-12.35,26.64-27.31,26.77a26.31,26.31,0,0,1-26.89-26.38c.14-14.7,12.42-26.68,27.4-26.77A26.32,26.32,0,0,1,1721.56,1699.22Z"/><path class="cls-19" d="M1413.75,1264.3c-.82,86.41-74.46,155.75-165.38,154.87-91.91-.9-166.49-73.08-165.66-161.21s76.75-157.43,168.65-154.8C1342.26,1105.76,1414.56,1177.89,1413.75,1264.3Z"/><path class="cls-20" d="M1341.91,1262.93c-.45,48.53-41.91,87.3-92.88,86.6-51.27-.72-92.7-41.08-92.23-90.15s42.63-87.84,93.9-86.58C1301.66,1174,1342.37,1214.39,1341.91,1262.93Z"/><path class="cls-21" d="M1278.42,1261.71c-.14,15.06-13,27-28.81,26.76s-28.54-12.75-28.39-27.86,13.09-27.09,28.91-26.76S1278.57,1246.65,1278.42,1261.71Z"/><polygon class="cls-13" points="2639.22 1047.31 2025.4 1025.91 2025.7 993.51 2639.51 1016.15 2639.22 1047.31"/><polygon class="cls-13" points="2316.93 1133.66 2024.46 1125.28 2024.77 1092.89 2317.23 1101.85 2316.93 1133.66"/><polygon class="cls-13" points="2316.43 1186.45 2023.95 1179.07 2024.26 1146.67 2316.73 1154.65 2316.43 1186.45"/><polygon class="cls-13" points="2315.93 1239.24 2023.44 1232.85 2023.75 1200.45 2316.23 1207.44 2315.93 1239.24"/><polygon class="cls-13" points="2315.43 1292.04 2022.93 1286.63 2023.24 1254.23 2315.74 1260.24 2315.43 1292.04"/><polygon class="cls-13" points="2638.32 1142.85 2357.84 1134.83 2358.14 1103.11 2638.61 1111.7 2638.32 1142.85"/><polygon class="cls-13" points="2637.83 1194.57 2357.34 1187.48 2357.64 1155.76 2638.12 1163.41 2637.83 1194.57"/><polygon class="cls-13" points="2637.34 1246.28 2356.84 1240.14 2357.14 1208.42 2637.63 1215.12 2637.34 1246.28"/><polygon class="cls-13" points="2636.85 1297.99 2356.35 1292.8 2356.65 1261.08 2637.14 1266.84 2636.85 1297.99"/><polygon class="cls-13" points="2635.82 1407.37 2021.86 1400.39 2022.16 1367.99 2636.11 1376.22 2635.82 1407.37"/><path class="cls-13" d="M2015.45,2081.42a3.18,3.18,0,0,1-2.24-.91,3.21,3.21,0,0,1-1-2.31l3.32-350.14a3.18,3.18,0,0,1,3.16-3.16l614.08-5.64a3,3,0,0,1,2.28.93,3.18,3.18,0,0,1,.94,2.29l-3.19,336.66a3.19,3.19,0,0,1-3.09,3.16l-614.2,19.12Zm6.47-350.16-3.25,343.67L2626.49,2056l3.12-330.34Z"/><polygon class="cls-13" points="2313.45 1501.27 2020.92 1499.77 2021.22 1467.37 2313.76 1469.46 2313.45 1501.27"/><polygon class="cls-13" points="2312.96 1554.07 2020.41 1553.55 2020.71 1521.15 2313.26 1522.26 2312.96 1554.07"/><polygon class="cls-13" points="2312.46 1606.86 2019.9 1607.33 2020.21 1574.93 2312.76 1575.06 2312.46 1606.86"/><polygon class="cls-13" points="2311.96 1659.65 2019.39 1661.11 2019.7 1628.71 2312.26 1627.85 2311.96 1659.65"/><polygon class="cls-13" points="2634.91 1502.92 2354.37 1501.48 2354.67 1469.76 2635.2 1471.77 2634.91 1502.92"/><polygon class="cls-13" points="2634.42 1554.63 2353.88 1554.14 2354.18 1522.41 2634.72 1523.48 2634.42 1554.63"/><polygon class="cls-13" points="2633.93 1606.34 2353.38 1606.79 2353.68 1575.07 2634.23 1575.19 2633.93 1606.34"/><polygon class="cls-13" points="2633.44 1658.05 2352.88 1659.45 2353.18 1627.73 2633.74 1626.9 2633.44 1658.05"/><path class="cls-13" d="M2017.93,1819.19a3.2,3.2,0,0,1,0-6.39l614.11-9a3.31,3.31,0,0,1,3.24,3.14,3.19,3.19,0,0,1-3.15,3.24l-614.11,9Z"/><path class="cls-13" d="M2126.7,2078h0a3.19,3.19,0,0,1-3.16-3.22l2.46-260.41a3.2,3.2,0,0,1,3.2-3.16h0a3.19,3.19,0,0,1,3.16,3.22l-2.46,260.41A3.19,3.19,0,0,1,2126.7,2078Z"/><path class="cls-13" d="M2271.11,2073.46h0a3.19,3.19,0,0,1-3.16-3.22l2.44-258a3.2,3.2,0,0,1,3.2-3.16h0a3.19,3.19,0,0,1,3.16,3.22l-2.44,258A3.19,3.19,0,0,1,2271.11,2073.46Z"/><path class="cls-13" d="M2308.08,2072.31h0a3.19,3.19,0,0,1-3.16-3.22l2.44-257.42a3.19,3.19,0,0,1,3.19-3.17h0a3.19,3.19,0,0,1,3.16,3.23l-2.43,257.42A3.19,3.19,0,0,1,2308.08,2072.31Z"/><path class="cls-13" d="M2344.89,2071.17h0a3.19,3.19,0,0,1-3.16-3.23l2.43-256.81a3.19,3.19,0,0,1,3.19-3.17h0a3.19,3.19,0,0,1,3.16,3.23L2348.08,2068A3.19,3.19,0,0,1,2344.89,2071.17Z"/><path class="cls-13" d="M2490.61,2066.63h0a3.2,3.2,0,0,1-3.17-3.22l2.41-254.43a3.19,3.19,0,0,1,3.19-3.16h0a3.2,3.2,0,0,1,3.17,3.22l-2.41,254.43A3.19,3.19,0,0,1,2490.61,2066.63Z"/><path class="cls-22" d="M1688.4,1253.49c-.52,55-46.16,100.33-102.48,101.27-56.92,1-103.08-43.72-102.55-99.79s47.54-101.41,104.45-101.29C1644.13,1153.81,1688.92,1198.49,1688.4,1253.49Z"/><path class="cls-23" d="M1643.89,1253.81c-.29,30.89-26,56.24-57.55,56.64-31.76.4-57.4-24.59-57.11-55.81s26.42-56.58,58.17-56.64C1619,1197.94,1644.18,1222.92,1643.89,1253.81Z"/><path class="cls-24" d="M1604.56,1254.09a17.91,17.91,0,0,1-17.85,17.51,17.2,17.2,0,0,1-17.59-17.25,17.9,17.9,0,0,1,17.91-17.5A17.19,17.19,0,0,1,1604.56,1254.09Z"/><path class="cls-25" d="M1359.27,2236.8s6.26-24.58,16.7-31.07,25.17-13.43,28.55-16.28,7.32,5.67-2.41,12.19l-9.74,6.52a9.71,9.71,0,0,0,.4,4.19c1.55,4.61,6.81,7.78,13.31,8.37,25,5.23,34.73,5.49,38.54,4.38.57-.17,2.74-.88,3.66.09,1.47,1.55-1.18,6.45-2.3,8.17-6.76,10.33-30.22,14.81-47.78,6.74-6.42-2.94-8.87-6.11-13.55-5.32-7.44,1.27-12,11.07-14.7,19.19Z"/><path class="cls-3" d="M1379.41,2244.6l-21.34-19c-2.6,2.63-40.57,39.68-93.64,28.45-36.55-7.73-57.63-37.74-71.13-56.9-40.55-57.54-16.3-99.75-60-138.85-12.12-10.86-35.91-24-51.46-20-37,9.55-58.38,121-22.52,208.63,7.24,17.69,47.09,115.1,137.51,125.65C1269.86,2381.14,1347.27,2329.71,1379.41,2244.6Z"/><path class="cls-26" d="M1090.17,2145c66.82,52.78,59.38,154,100.46,159.15,12.55,1.56,11.86-8.06,41.79-17.78,43.77-14.24,64.34.14,95.13-10.67,12.75-4.48,29.34-14,45.68-36.62l6.18,5.5c-32.14,85.11-109.55,136.54-182.55,128-90.42-10.55-130.27-108-137.51-125.65-16.83-41.13-21.06-87.49-17-126.11A139.59,139.59,0,0,1,1090.17,2145Z"/><path class="cls-27" d="M878.8,3177.24c-3.9,3.17-4.62,11.09-5.08,16.26-.22,2.31-.32,3.47-.06,4.28,1.88,5.95,13.43,6.58,31.53,8.43,28.61,2.92,37.13,5.18,39.37.92,2.09-4-3-10.52-3.56-11.25-3.07-3.87-6.84-5.28-14.14-7.68-13.5-4.44-22.62-6.87-25.38-7.61C884.24,3176,881.36,3175.16,878.8,3177.24Z"/><path class="cls-28" d="M895.81,3151.11l2.87,32.6c-.82,1.57-10.51,6.3-18.2,2.25l-7.36-32.05Z"/><path class="cls-29" d="M1128.91,3162.83c-4.67,5.16-5.74,14.66-1.68,19.34s10,1.15,27,1.66c18.24.54,23,4.85,35.4,1.43,5-1.38,13.86-4.74,13.69-8.32-.12-2.51-4.62-3.81-19.66-8.85-21.35-7.15-21.26-7.54-25.79-8.29C1146.51,3157.91,1135.08,3156,1128.91,3162.83Z"/><path class="cls-30" d="M1140.6,3133.07l9.15,30.44c-.7,1.63-10,7.08-18,3.63l-13.59-29.54Z"/><path class="cls-31" d="M1059.3,2466.49a2851.57,2851.57,0,0,0,90.09,675.44l-35,9.43c-29.62-27.62-67-71.09-85-132.53-11.19-38.13-7.46-57.72-14.56-104.62-11.3-74.67-34.19-113.79-57.84-174-21.26-54.11-46.39-133.52-59.87-239.67Z"/><path class="cls-32" d="M930.71,2467Q920,2662.09,913.23,2864.42q-5,151.8-7.42,299.71L870,3168.55a416.91,416.91,0,0,1-37.31-96.29c-12.73-51.06-9.78-81.38-15.37-134.29-6.26-59.35-15.36-72.28-31.49-147.15-32.72-151.94-49.08-227.91-12.58-275.17C785.13,2500.31,822.28,2461.82,930.71,2467Z"/><path class="cls-33" d="M788.45,2037.64a554.94,554.94,0,0,1,119-19.87c71.49-4,107.24-6.07,132.57,11,58.5,39.32,13.21,130.07,37.15,355,10.18,95.61,14.77,89.43-8.17,123.46-46.6,69.14-177.51,74.81-237.47,14.86-31.7-31.68-35.79-33.47-36.55-69.62C792,2309.77,789.69,2175,788.45,2037.64Z"/><path class="cls-3" d="M1096.75,2039.79a211.69,211.69,0,0,0-91.19-23.1,771.85,771.85,0,0,0-50.42,192c-9.48,74.38-5,123.59,0,225.77,3.2,64.56,6.47,158.1,5.49,273.32a163.08,163.08,0,0,0,46.57,8c38.26.86,51-13,90.13-9.14,17,1.67,21.29,5,27,1.13,16-10.66,4-50.19-4-93.12-12.41-66.37,1.1-52.71-11-160.2-10-89.11-23.9-139.06-11-144.18C1105.27,2307.54,1111.78,2047.52,1096.75,2039.79Z"/><path class="cls-34" d="M1059.3,2466.49c.5-67,36.22-76.53,32.63-134.22-3.63-58.09-40.66-61.28-39.38-111.27,1.56-60.8,56.94-80,54.78-135.24-.72-18.63-7.8-35.06-17-49a213,213,0,0,0-84.78-20.1,771.85,771.85,0,0,0-50.42,192c-9.48,74.38-5,123.59,0,225.77,3.2,64.56,6.47,158.09,5.49,273.32a163.08,163.08,0,0,0,46.57,8c38.26.86,51-13,90.13-9.14,17,1.67,21.29,5,27,1.13,14-9.31,6.6-40.67-.84-77.07-11.74-15.17-23.85-29.75-36.75-57.07C1077.05,2553,1058.94,2514.65,1059.3,2466.49Z"/><path class="cls-3" d="M920.12,2221.17c8.75,33.24,7.94,59.7,7,84.11-5.14,134.49-7.76,202.13-10,221.28-10.94,93-18.66,87.2-16,125,1.42,20.21,4.73,37.52-6.33,50.24-13.18,15.17-32.16,7-78.85,13-42.93,5.54-44.06,14.69-90.45,20.27-18.85,2.26-70.32,8.45-75.7-6.19-2.88-7.83,7.77-20.69,18-27,16.71-10.35,31-2.54,36.59-10.8,6.46-9.46-11-21.55-11.56-44.27s16.29-30,26.76-57.8c9.75-25.9,5.82-47.95,4.31-63.56-6.7-69.67,24-124.77,30-217.07,9.42-143.73-52-206.87-10.31-252.92,22.58-24.94,59.76-27.57,83-27,24.15,50.31,44.95,89.89,59.68,117.07C902.18,2174.78,912.61,2192.64,920.12,2221.17Z"/><path class="cls-3" d="M1013.74,2184.13c-3.43-11.81-14.26-23.13-10-37.05,2.5-8.21,9.08-13.53,14.14-16.7,33.34-7.49,55.76-38.68,52.44-71.41a65.13,65.13,0,0,0-14.89-35.09,214.42,214.42,0,0,0-49.86-7.19,771.85,771.85,0,0,0-50.42,192,677.14,677.14,0,0,0-5.5,96.71c5.78-18.44,13.88-32.22,22.48-42.68C986.68,2245,1022.09,2212.88,1013.74,2184.13Z"/><g class="cls-35"><path class="cls-36" d="M920.12,2221.17c-7.51-28.53-17.94-46.39-33.84-75.75-14.73-27.18-35.53-66.76-59.68-117.07-5.63-.14-12.1-.08-19,.43-36.76,50.78-39.09,79.16-30.55,96,8.32,16.42,25.72,19.61,28,37.33,3.55,27.71-36.78,37.19-46.67,74.66-8.63,32.71,11.57,65.39,30.59,96.14,32.34,52.31,62,58.77,60.87,86.78-1.13,29.14-33.48,29.66-46.66,65.32-20.65,55.91,43.52,96.12,24.26,145.59-14.92,38.34-60,31-87.72,80.26a114.32,114.32,0,0,0-9.86,23.55c42-5.61,44.56-14.33,86-19.68,46.69-6,65.66,2.19,78.85-13,11.07-12.72,7.75-30,6.33-50.24-2.65-37.76,5.07-32,16-125,2.25-19.15,4.87-86.79,10-221.28C928.06,2280.87,928.87,2254.41,920.12,2221.17Z"/></g><path class="cls-3" d="M822,2143.57c19,16.86,32.68,22.55,35,38.62,2.62,17.71-12.14,23.63-9.63,40.87,3.13,21.57,27.58,21.61,40.17,49.18,8.24,18,1,25.2,6,48.56,3,14.24,10.49,34.07,30.79,56.09.83-21.39,1.74-45.19,2.75-71.61.93-24.41,1.74-50.87-7-84.11-7.51-28.53-17.94-46.39-33.84-75.75-14.73-27.18-35.53-66.76-59.68-117.07-13.62-.33-32,.48-49.47,6.19-6,11-7,19.74-7.2,24.43C768.57,2096.09,809.34,2132.32,822,2143.57Z"/><path class="cls-37" d="M912.77,1939.66a247.19,247.19,0,0,1-4.43,49.51c-2.56,13.19-4.41,16.6-6.76,19.36-3.55,4.17-8.92,7.66-39.29,15.19-16.53,4.1-18.66,4-19,5.62-1.78,8,43.28,35.27,89.84,28.7,28.5-4,54.42-20.28,52.83-28.82s-30.06-4-38.55-19.52c-5.9-10.81.72-26.16,8.54-38.88C948.35,1956.63,920.34,1953.85,912.77,1939.66Z"/><path class="cls-38" d="M965.66,1948c6.72-8.93,7.13-24.53-.61-34.39-6.67-8.48-17.17-9.69-23.45-10.42-18.2-2.1-41.17,5.5-49.16,22.26-4.73,9.92,5.51,30.55,7.11,34.26,1.82,4.2,5.11,5.64,8.15,8.81,4.22,4.39,10.83,11.39,21.62,23.08a74.67,74.67,0,0,1,4.14-12.35,65.84,65.84,0,0,1,8.64-14.52C951.59,1953.2,959.28,1956.5,965.66,1948Z"/><path class="cls-39" d="M913.93,1981.81s12,19.63,35.8,18.08c21.33-1.39,24.46-49.23,10.83-59.38-4.55-3.39-13.65-4.8-21-2.72-4.38,1.22-5.86,3-13,4.9-6.63,1.72-8.5,1-10.5,2.67-2.5,2.11-4.33,7.27-.15,21.25-4.07-4.12-9-5.7-12.42-4.06a7.22,7.22,0,0,0-2.84,2.76C897.57,1970.78,902.57,1977.76,913.93,1981.81Z"/><path class="cls-40" d="M915,1942.5c1,.77-2.12,4.61-2.35,10-.46,10.54,10.22,23.2,21.1,24.28,6.44.63,8.21-3.25,18.85-4.37a48.81,48.81,0,0,1,15.53.89c3.34,11.57.2,23.1-7.53,28.45-8.33,5.76-19,2.26-23.4.8-3-1-12.51-4.09-17.49-12.82-5.19-9.11-.09-14.6-6.05-20.76-3-3.1-6.94-4.45-10.78-10.46a30.56,30.56,0,0,1-2.17-4.06C906.23,1948.66,913.52,1941.39,915,1942.5Z"/><path class="cls-41" d="M960.39,1977.63s-4.6,2.41-12.56,2c-.39,0-.82.09-.87.29-.18.76,4.93,4.14,9.63,2.82,3.34-.94,5.94-4.1,5.49-4.91C961.89,1977.45,961.14,1977.5,960.39,1977.63Z"/><path class="cls-3" d="M837.42,2248.9c12.16,25.83-43.73,86-105.86,114.56-12.65,5.82-103.55,47.61-144.07,7.43-33.47-33.22-11.87-101.89-4.15-126.4,37.87-120.39,145-187.86,193.79-209.95,36.38,91,24.09,137.73,15.66,150.39-8.81,13.22-33.4,41-59.51,65.46-18.36,17.2-29.8,25.58-28.26,28.26,1.91,3.34,23.44-3,107.06-43.67C821.78,2236.55,833.26,2240.08,837.42,2248.9Z"/><path class="cls-42" d="M1044.23,2097.92l-148,13.86a7.59,7.59,0,0,0-6.57,5.46l-55.23,192.87a7.56,7.56,0,0,0,7.94,9.62l149.23-13.16a7.57,7.57,0,0,0,6.62-5.51l54-193.57A7.57,7.57,0,0,0,1044.23,2097.92Z"/><path class="cls-43" d="M816.3,2242.86s51-52.16,71.72-59.87,2.38,47.31-9.78,55.07-16.89,10.72-26.38,11.91l-9.48,1.18-12.45,6.64S813.93,2255.9,816.3,2242.86Z"/><path class="cls-44" d="M945.71,2264.75c5.58-30.49-11.62-54.13,4.86-82.71,17-29.4,46.73-24.44,68.12-48.65,6.8-7.71,12.91-18.63,15.92-34.57l9.62-.9a7.57,7.57,0,0,1,8,9.57l-54,193.57a7.57,7.57,0,0,1-6.62,5.51l-75.78,6.68C935.08,2296,943.05,2279.29,945.71,2264.75Z"/><path class="cls-45" d="M1274.34,3091.1a15.81,15.81,0,0,1-15.81-15.81v-669.1a15.81,15.81,0,0,1,31.62,0v669.1A15.81,15.81,0,0,1,1274.34,3091.1Z"/><path class="cls-45" d="M2529.23,2964.54a15.8,15.8,0,0,1-15.81-15.8V2342.21a15.81,15.81,0,1,1,31.61,0v606.53A15.8,15.8,0,0,1,2529.23,2964.54Z"/><path class="cls-45" d="M1271.6,3098.86,1689.34,3235a86.3,86.3,0,0,0,34.52,3.91l1303.48-117.05c13.54-1.21,15.1-20.39,1.93-23.77l-496-127.64a12.36,12.36,0,0,0-4-.34L1274.34,3075.3C1261.18,3076.4,1259,3094.77,1271.6,3098.86Z"/><path class="cls-13" d="M1271.6,3073.24l417.74,136.16a86.3,86.3,0,0,0,34.52,3.91l1303.48-117c13.54-1.22,15.1-20.39,1.93-23.78l-496-127.63a11.84,11.84,0,0,0-4-.34L1274.34,3049.67C1261.18,3050.77,1259,3069.15,1271.6,3073.24Z"/><path class="cls-45" d="M1091.38,2429a22.84,22.84,0,0,1-1.2-45.64l1536.18-81.92a22.84,22.84,0,0,1,2.44,45.61L1092.61,2429C1092.2,2429,1091.78,2429,1091.38,2429Z"/><path class="cls-46" d="M1852.18,3020.75s7.69,7.69,11.54,15.39-26.93,42.31-38.47,50-15.38-3.85-7.69-19.23S1852.18,3020.75,1852.18,3020.75Z"/><path class="cls-47" d="M2013.72,3090s-57.69,26.92-61.54,38.46,61.54-7.69,69.23-15.39S2013.72,3090,2013.72,3090Z"/><path class="cls-48" d="M1859.87,2397.65c-76.82,92.82-110.83,180.28-126.93,234.63-14.12,47.65-26.28,90.31-19.23,146.15,7.73,61.26,34.77,108.29,65.39,161.55a771.33,771.33,0,0,0,65.38,96.16l15.39-15.39a326.56,326.56,0,0,0,11.54-111.54c-4-55-21.49-91.6-26.93-107.7-17.35-51.39,3.7-143,180.78-319.24Z"/><path class="cls-49" d="M1886.79,2390a1084.82,1084.82,0,0,1,46.16,207.7,1096.65,1096.65,0,0,1,7.69,111.54c2.12,79.22,14.76,200.67,61.54,384.63a19.7,19.7,0,0,0,11.54,3.85c27.62-.72,51.84-74.28,57.7-134.62,5.16-53.23-7.53-59.28-7.7-115.39-.2-69.78,19.35-85.83,34.62-169.24,15.85-86.6,26.87-146.79,0-196.16C2051.74,2396.64,1916.78,2390.67,1886.79,2390Z"/><path class="cls-50" d="M1478.67,2365.79c45.36-28,73.08-57.89,89.76-79.4,49.61-64,43.72-108.12,100.11-172.62,27-30.85,55.78-63.78,89.76-58.69,44,6.6,78.49,74.05,62.15,110.48-9.51,21.18-30.16,18.36-65.6,41.43-51.84,33.75-56.56,71.64-89.76,107-26.85,28.61-75.13,58.56-169.16,62.14Z"/><path class="cls-51" d="M1768.66,2510.79c-19.44-11.2-4.05-51.08-10.36-117.38-1.28-13.54-1.63-8.77-24.16-103.57-15.67-65.91-21.25-92.39-24.17-127.73-5.09-61.63,3.87-77.84,10.36-86.31,14.85-19.38,37-24.67,65.59-31.07,23-5.16,73.94-16.56,127.74,3.45,55.6,20.68,84.14,63,107,96.66,19.8,29.15,35.21,75.31,66,167.63,44.66,133.78,18.16,83.69,42,148.25,10.2,27.69,23.26,59.09,12.84,95-1.68,5.78-10.92,37.52-31.07,41.43-16,3.1-27.34-13.92-58.69-41.43-44.78-39.3-67.17-59-93.21-58.69-38.65.39-51.7,41.77-86.31,34.52-19.63-4.11-20.37-18.45-44.88-24.16C1796.76,2500.21,1783.07,2519.08,1768.66,2510.79Z"/><path class="cls-52" d="M2089.73,2431.39c-20.6-31.63-45.13-25.34-58.69-55.24s6.11-47,3.45-82.86c-5-67.79-85.1-138.42-145-131.18-38.31,4.62-52,39.14-82.85,31.07-29.49-7.72-32.34-43.25-58.69-44.88-25.77-1.6-47.12,30.88-51.79,38-23.09,35.12-6.21,53.27-24.16,89.76-13.35,27.11-36.52,42.24-82.86,72.5-12.57,8.21-24.53,15.27-35.54,21.33,57.32-11,90.79-33.79,111.49-55.85,24.19-25.78,33.27-52.89,56.46-78.75,3.26,15,7.36,32.59,12.59,54.58,22.53,94.79,22.88,90,24.16,103.57,6.31,66.3-9.08,106.18,10.36,117.38,14.41,8.29,28.1-10.58,58.69-3.45,24.51,5.71,25.25,20,44.88,24.16,34.61,7.25,47.66-34.13,86.31-34.52,26-.26,48.43,19.39,93.21,58.69,31.35,27.51,42.7,44.53,58.69,41.43,10.23-2,17.51-11.26,22.75-21.32a145.36,145.36,0,0,1-22.75-40.83C2094.3,2489.77,2112,2465.57,2089.73,2431.39Z"/><path class="cls-53" d="M1630.77,2452.31c48.44-25.8,142.12-84.77,178-181.92,35.3-95.69,31.64-158.19,31.64-158.19-1.86-31.77-8.3-53,4-63.27,21.44-18,88.79,7,118.64,51.41,48.87,72.62-1.75,198.45-67.23,268.92-90.63,97.55-219.22,99.25-249.14,98.87Q1638.67,2460.23,1630.77,2452.31Z"/><path class="cls-54" d="M1766.91,2056.44s4.32,1.32,11-.34c.32-.08.71,0,.78.12.28.61-3.54,4.32-7.78,3.94-3-.27-5.73-2.56-5.47-3.32C1765.6,2056.52,1766.25,2056.44,1766.91,2056.44Z"/><path class="cls-55" d="M1789.94,1966.09c1.6,22.64,15.71,83.17,90.86,81.08,20.11-.56,22.39,2.78,23,4.51,2.79,8.42-48.11,41.14-103.44,37.73-33.75-2.08-65.46-17.37-64.32-26.58s23-1,31.62-18.29c6-12-14.41-35.66-24.65-48.57C1750.64,1980.22,1782.25,1981.86,1789.94,1966.09Z"/><path class="cls-56" d="M1721.1,1986.66c-10.2-7.61-15.13-23.71-9.15-35.87,5.15-10.48,16.73-14.36,23.67-16.69,20.13-6.75,48.52-4.6,62.47,10.84,8.27,9.16,2.51,33.23,1.74,37.49-.87,4.82-4.22,7.14-6.79,11.2-3.55,5.64-9.09,14.56-18,29.41a81.56,81.56,0,0,0-8.27-11.84,75.75,75.75,0,0,0-14-13C1738.58,1988.54,1730.77,1993.89,1721.1,1986.66Z"/><path class="cls-57" d="M1789.74,2009a45.24,45.24,0,0,1-35.65,27.68c-24.68,3.8-41.93-45.17-29.35-59.1,4.2-4.65,14.15-8.38,23.18-8.06,5.33.18,7.54,1.71,16.26,1.85,8.06.14,10-1.09,12.75.17,3.46,1.57,7,6.49,6.29,22.1,3.46-5.31,8.59-8.17,13-7.33a9,9,0,0,1,4,2.18C1805.27,1993.43,1801.57,2002,1789.74,2009Z"/><path class="cls-45" d="M1723.86,3229.12a15.81,15.81,0,0,1-15.81-15.81v-731.1a15.81,15.81,0,0,1,31.61,0v731.1A15.8,15.8,0,0,1,1723.86,3229.12Z"/><path class="cls-45" d="M3036.19,3112a15.81,15.81,0,0,1-15.81-15.81V2430.78a15.81,15.81,0,1,1,31.62,0v665.37A15.81,15.81,0,0,1,3036.19,3112Z"/><path class="cls-58" d="M1478.67,2365.79s-24.59-21-72.32-.56c0,0,53,31.22,89.58,10.92Z"/><path class="cls-13" d="M1494.09,2513.11a22.83,22.83,0,0,1-1.12-45.64l1682.85-84.09a22.83,22.83,0,1,1,2.27,45.61l-1682.84,84.09Z"/><path class="cls-59" d="M1646.59,2468.13s-.53-35.71-50.5-5.81S1620.38,2508.82,1646.59,2468.13Z"/><path class="cls-60" d="M2715.14,2304.89c33.08,40.69,44.87,88,29.36,117.83-14.68,28.25-49.63,31.9-76.41,30-30.75-2.19-52.1-14.05-65.32-36.24-25-42-20.17-114.67-4.1-188.68l.13,0,30.58,12.1.07,0,.06,0h0C2675.77,2261.52,2703.21,2290.21,2715.14,2304.89Zm35.59-508.72h0l-109.63-25.54c-69.5-17.12-93.75-78.68-99.92-139.59,29.91,32.86,67.25,56.08,112.46,68.29l0,.21,120.55,29.73,0-.09c41.81,9.21,89.48,6,133-9.6C2873.77,1771.57,2823.17,1817,2750.73,1796.17ZM2668.79,2023c2.63.66,5.37,1.35,8.25,2,27.19-19,78.89-122,90.36-145.31a189.82,189.82,0,0,0,63.82-5.06V1690.21a202.92,202.92,0,0,1-52.63-6.3l-109.59-27c-45-11.09-81.74-35.86-109.28-73.66a137.23,137.23,0,0,1-17.95-33.54c1.73-17.57,4.12-32.26,6-42a14.11,14.11,0,0,0-10.22-16.28l-3.57-.87c.1-1.07.17-2.15.28-3.22l38.35-348c4.47-35.61,21.52-40.36,86.76-43.76q7.64-.4,15.52-.86l20.69-1.25c0,.87.1,1.66.14,2.43a10.82,10.82,0,0,0,6.68,9.42l44.77,18.19a15,15,0,0,0,20.34-11.09l12.37-65a15,15,0,0,0-16.77-17.67l-59.84,8.21a10.74,10.74,0,0,0-9.29,10.36l-21.79,1.28c-5.13.31-10.22.59-15.18.83-56,3-119.53,6.24-129.23,83.61l-38.08,345.47-2.18-.52a13.78,13.78,0,0,0-10.68,1.67,13.53,13.53,0,0,0-5.92,8.9c-22,105-22.14,286.82,118.53,346.2-.73,25.92-3,141.16,12.23,170.68,3.12.76,6.13,1.53,9,2.22,2.52.62,4.92,1.21,7.24,1.76-12.09,28.9-34.79,86.49-53.22,152.39-.63,2.11-1.22,4.26-1.77,6.41-62.82-10.54-131.28-5.58-204.11,14.9-116.59,32.81-202,12.19-254-61.3-40.71-57.51-58.11-144.2-49.13-244.13a597.4,597.4,0,0,1,29.83-139.39c2.7-.45,4.89-1.38,6.2-3,5.48-7,14.66-27.55,20.17-40.16.48,0,1-.48,1.45-.48h.14c2.84,0,5.75,0,8.63,0a168.58,168.58,0,0,0,167.35-167.73c0-92.47-74.94-167.94-167.35-167.94-2.88,0-5.79-.38-8.63-.38h-.14c-2.84,0-5.75.52-8.62.52-14.28,0-28.14,2.57-41.37,6a167.7,167.7,0,0,0-20.38,318.2c-6.72,15.21-14.83,36.42-9.42,40.26a39.2,39.2,0,0,0,4.5,2.64,645.5,645.5,0,0,0-30.87,147.15c-10,111.43,10.54,209.65,57.9,276.63,33.88,47.88,93.44,96.94,195.17,96.91,32.74,0,69.82-5.06,111.78-16.88,39.84-11.19,75.84-16.77,108.13-18.29a355.07,355.07,0,0,1,71.17,3.64c-22.21,101.27-18.95,176.81,9.67,224.93,21.65,36.35,56.54,56.55,103.7,59.94,5.33.39,10.39.56,15.31.56,67.7,0,96.46-34.82,107.79-56.58,24.74-47.5,11.09-114.65-34.75-171.06-24.77-30.45-69.37-70.85-142.68-93.65a1253.1,1253.1,0,0,1,55.4-158.27C2667.85,2022.8,2668.75,2023,2668.79,2023Z"/><path class="cls-61" d="M2784.25,2274.18c-24.76-30.47-69.35-70.85-142.67-93.67,18.85-69,44.14-133.69,60.38-169.55l-44.34-20.1c-1.46,3.2-35.79,79.44-61.67,172-.62,2.12-1.21,4.28-1.77,6.4-62.81-10.54-131.3-5.57-204.13,14.92-116.58,32.79-202,12.17-254-61.32-40.69-57.49-58.12-144.2-49.14-244.12,8.48-94.08,40.86-189.07,86.67-254.07l-39.79-28c-51.27,72.76-86.05,174-95.37,277.75-10,111.4,10.54,209.66,57.88,276.61,33.91,47.89,93.45,97,195.18,96.93,32.73,0,69.81-5.08,111.79-16.87,39.82-11.2,75.82-16.8,108.13-18.29a355.91,355.91,0,0,1,71.16,3.61c-22.19,101.28-19,176.83,9.67,224.93,21.66,36.38,56.55,56.55,103.71,60,5.32.38,10.4.55,15.3.55,67.72,0,96.45-34.81,107.79-56.58C2843.73,2397.72,2830.09,2330.59,2784.25,2274.18Zm-8.45,148.54c-14.68,28.25-49.63,31.9-76.41,30-30.75-2.19-52.1-14.05-65.32-36.24-25-42-20.17-114.67-4.1-188.68a272.25,272.25,0,0,1,30.78,12.17l.1,0c46.22,21.57,73.67,50.26,85.6,64.94C2779.52,2345.58,2791.31,2392.92,2775.8,2422.72Z"/><path class="cls-62" d="M2734.05,1854.07l.67-2.69-22.32-4.07-21.52-6.73-.66,2.68-69.36-12.66s-5.15,142.58,12.07,175.88l9,2.22,7.44,1.83,43.84,10.79,6.9,1.7,8.22,2C2739.05,2003.56,2801,1875,2801,1875Z"/><path class="cls-3" d="M3104.1,1152.91c-4.28-2.54-8.58-5.11-13-7.77l-30.35-18.33-23.3,38.67,30.39,18.33c4.51,2.72,9,5.37,13.35,8,56.21,33.31,69.1,45.43,56.52,79.07l-127.67,326c-12.52,32-37.38,57.68-68.15,72.85-42,20.69-82.7,26.38-132,14.23l-109.59-27c-45-11.08-81.73-35.86-109.27-73.66a137,137,0,0,1-25.5-95.93l38.34-348c4.47-35.63,21.52-40.38,86.77-43.78,5.08-.26,10.26-.53,15.53-.85l35.42-2.12-2.7-45.07-35.42,2.12c-5.15.31-10.21.58-15.18.84-56,2.92-119.55,6.23-129.26,83.58l-38.38,348.32A182.69,182.69,0,0,0,2555,1610c32.38,44.44,75.47,74.85,130,89.56l0,.12,120.54,29.69,0-.12c49.62,10.94,107.5,5.4,156.82-18.92a182.42,182.42,0,0,0,89.49-97.06L3179.73,1287C3207.06,1213.94,3152.37,1181.52,3104.1,1152.91Z"/><path class="cls-63" d="M2811.14,1047.45a15,15,0,0,0-16.76-17.65l-59.85,8.2a10.77,10.77,0,0,0-9.32,10.67c0,13,1.15,35.84,1.76,47.23a10.76,10.76,0,0,0,6.71,9.4l44.74,18.19a15,15,0,0,0,20.37-11.08Z"/><path class="cls-64" d="M2996.58,1093.13a15,15,0,0,1,23-7.85l49.21,35.06a10.77,10.77,0,0,1,3.29,13.77c-6,11.48-17.66,31.21-23.49,41a10.8,10.8,0,0,1-10.31,5.22l-48.08-4.68a15,15,0,0,1-12.88-19.26Z"/><path class="cls-65" d="M3065.31,1628.29c1-3.62,1.38-7.3-.51-10.55a14.31,14.31,0,0,0-8.86-6.56l-50.32-12.44c-7.15-1.77-15.13,1.68-17.3,8.72-15,48.79-74.55,223.36-206.28,188.71h0l-109.63-25.54h0c-127.43-31.39-102.74-213.06-93.38-263.26a13.89,13.89,0,0,0-10.23-16.11l-50-12.33a13.76,13.76,0,0,0-10.67,1.72,13.59,13.59,0,0,0-5.94,8.95c-23.41,111.6-22.07,310,146.79,355.93l-.5,2,120.55,29.7.5-2C2940.36,1913.11,3034.2,1738,3065.31,1628.29Z"/><path class="cls-66" d="M2081.61,1668.58s-25.45,49.92-16.86,56,49.9,22.18,58.16,11.74,24.78-50.43,24.78-50.43Z"/><path class="cls-67" d="M2303.28,1527.4A168.1,168.1,0,0,1,2238.76,1660c-26.22,20.48-58.67,32.26-94.08,35.73h-.14c-2.85,0-5.74,0-8.62,0-92.45,0-167.37-75.08-167.37-167.49a167.4,167.4,0,0,1,126-162.24c13.22-3.41,27.1-5.85,41.36-5.85,2.88,0,5.77-.47,8.62-.47h.14C2233,1366.53,2303.28,1437.87,2303.28,1527.4Z"/><path class="cls-68" d="M2320.67,1528a167.93,167.93,0,0,1-167.36,167.61c-2.89,0-5.78,0-8.63,0h-.14c-88.37-6.93-158.6-77.91-158.6-167.4,0-71.13,44.35-132.62,106.88-156.86,16.18-6.26,33.57-8.36,51.72-11.83h.14c2.85,0,5.74.44,8.63.44C2245.72,1360,2320.67,1435.59,2320.67,1528Z"/><circle class="cls-3" cx="2153.3" cy="1528.03" r="129.93" transform="translate(-449.8 1970.16) rotate(-45)"/><circle class="cls-69" cx="2153.3" cy="1528.03" r="104.99" transform="translate(-449.8 1970.16) rotate(-45)"/><circle class="cls-3" cx="2153.3" cy="1528.03" r="19.13" transform="translate(-449.8 1970.16) rotate(-45)"/><path class="cls-70" d="M2239.49,1671.51a166.67,166.67,0,0,1-86.18,24.14c-2.89,0-5.78,0-8.63,0h-.14c-2.85,0-5.74,0-8.62,0-92.45,0-167.37-75.08-167.37-167.49a167.4,167.4,0,0,1,126-162.24c-.62,1.95-1.18,3.94-1.74,6.06a191,191,0,0,0-6.64,44.81,130.1,130.1,0,0,0,2.33,28.69c4.35,21.84,15.13,43.19,37,60q6.57,5,13.07,10.33c9.85,7.93,19.59,16.31,28.87,25.07,21.56,20.32,40.87,42.75,54.05,66.92a156.61,156.61,0,0,1,10.57,23.55,124.29,124.29,0,0,1,6.68,28.69A104.21,104.21,0,0,1,2239.49,1671.51Z"/><path class="cls-71" d="M2641.59,2180.53,2630,2227.74l30.87,12.21s2.9-19.83-3.19-24.79S2640.39,2184.86,2641.59,2180.53Z"/><path class="cls-72" d="M2594.18,2169.25l-11.65,47.12a355.91,355.91,0,0,0-71.16-3.61c13.77-17.88,47.3-17.74,48-28.66C2560.27,2171.09,2594.18,2169.25,2594.18,2169.25Z"/></g></g></g></svg>